<svg width="35" height="39" viewBox="0 0 35 39" fill="none" xmlns="http://www.w3.org/2000/svg">
<path fill-rule="evenodd" clip-rule="evenodd" d="M5.83333 3.55827C4.2225 3.55827 2.91667 4.8641 2.91667 6.47493L2.91667 32.7249C2.91667 34.3358 4.2225 35.6416 5.83333 35.6416H17.5C19.1108 35.6416 20.4167 34.3358 20.4167 32.7249V25.4333C20.4167 24.6279 21.0696 23.9749 21.875 23.9749C22.6804 23.9749 23.3333 24.6279 23.3333 25.4333V32.7249C23.3333 35.9466 20.7217 38.5583 17.5 38.5583H5.83333C2.61167 38.5583 -1.73847e-07 35.9466 0 32.7249L1.13e-06 6.47493C1.30385e-06 3.25327 2.61167 0.641601 5.83333 0.641602L17.5 0.641602C20.7217 0.641602 23.3333 3.25327 23.3333 6.47494V13.7666C23.3333 14.572 22.6804 15.2249 21.875 15.2249C21.0696 15.2249 20.4167 14.572 20.4167 13.7666V6.47494C20.4167 4.86411 19.1108 3.55827 17.5 3.55827L5.83333 3.55827ZM26.6771 12.7354C27.2467 12.1659 28.17 12.1659 28.7395 12.7354L34.5729 18.5687C35.1424 19.1383 35.1424 20.0616 34.5729 20.6311L28.7395 26.4645C28.17 27.034 27.2467 27.034 26.6771 26.4645C26.1076 25.895 26.1076 24.9716 26.6771 24.4021L30.0209 21.0583L8.75 21.0583C7.94459 21.0583 7.29167 20.4053 7.29167 19.5999C7.29167 18.7945 7.94459 18.1416 8.75 18.1416L30.0209 18.1416L26.6771 14.7978C26.1076 14.2283 26.1076 13.3049 26.6771 12.7354Z" fill="#0F172A"/>
</svg>
