<svg width="18" height="17" viewBox="0 0 18 17" fill="none" xmlns="http://www.w3.org/2000/svg">
<path d="M6.46875 1.7H11.5312C11.6859 1.7 11.8125 1.8275 11.8125 1.98333V3.4H6.1875V1.98333C6.1875 1.8275 6.31406 1.7 6.46875 1.7ZM4.5 1.98333V3.4H2.25C1.00898 3.4 0 4.41646 0 5.66667V9.06667H6.75H11.25H18V5.66667C18 4.41646 16.991 3.4 15.75 3.4H13.5V1.98333C13.5 0.888958 12.6176 0 11.5312 0H6.46875C5.38242 0 4.5 0.888958 4.5 1.98333ZM18 10.2H11.25V11.3333C11.25 11.9602 10.7473 12.4667 10.125 12.4667H7.875C7.25273 12.4667 6.75 11.9602 6.75 11.3333V10.2H0V14.7333C0 15.9835 1.00898 17 2.25 17H15.75C16.991 17 18 15.9835 18 14.7333V10.2Z" fill="#FFB600"/>
</svg>
