<svg width="25" height="22" viewBox="0 0 25 22" fill="none" xmlns="http://www.w3.org/2000/svg">
<path d="M7.28027 1.61071L6.77246 3.14286H3.125C1.40137 3.14286 0 4.55223 0 6.28571V18.8571C0 20.5906 1.40137 22 3.125 22H21.875C23.5986 22 25 20.5906 25 18.8571V6.28571C25 4.55223 23.5986 3.14286 21.875 3.14286H18.2275L17.7197 1.61071C17.4023 0.648215 16.5088 0 15.498 0H9.50195C8.49121 0 7.59766 0.648215 7.28027 1.61071ZM12.5 17.2857C9.91211 17.2857 7.8125 15.1741 7.8125 12.5714C7.8125 9.96875 9.91211 7.85714 12.5 7.85714C15.0879 7.85714 17.1875 9.96875 17.1875 12.5714C17.1875 15.1741 15.0879 17.2857 12.5 17.2857Z" fill="#FFB600"/>
</svg>
