<svg width="29" height="26" viewBox="0 0 29 26" fill="none" xmlns="http://www.w3.org/2000/svg">
<path d="M14.5015 24.1375C22.5096 24.1375 29 18.7355 29 12.0687C29 5.40192 22.5096 0 14.5015 0C6.4933 0 0.0029424 5.40192 0.0029424 12.0687C0.0029424 14.6856 1.00538 17.1051 2.70443 19.0837C2.59682 20.5052 2.05879 21.7701 1.49244 22.7333C1.18095 23.2671 0.863793 23.6965 0.63159 23.9866C0.512656 24.1317 0.42204 24.2419 0.354079 24.3173C0.320098 24.3522 0.297444 24.3812 0.280453 24.3986L0.263463 24.416C0.0029424 24.6829 -0.0706829 25.0774 0.0709043 25.4256C0.212491 25.7737 0.540974 26 0.909101 26C2.53452 26 4.17127 25.4836 5.53051 24.8802C6.82745 24.2999 7.93183 23.6095 8.60578 23.1047C10.4068 23.7719 12.4003 24.1433 14.5015 24.1433V24.1375ZM7.25221 13.9255C6.24977 13.9255 5.43989 13.0957 5.43989 12.0687C5.43989 11.0417 6.24977 10.212 7.25221 10.212C8.25464 10.212 9.06452 11.0417 9.06452 12.0687C9.06452 13.0957 8.25464 13.9255 7.25221 13.9255ZM14.5015 13.9255C13.499 13.9255 12.6892 13.0957 12.6892 12.0687C12.6892 11.0417 13.499 10.212 14.5015 10.212C15.5039 10.212 16.3138 11.0417 16.3138 12.0687C16.3138 13.0957 15.5039 13.9255 14.5015 13.9255ZM23.5631 12.0687C23.5631 13.0957 22.7532 13.9255 21.7507 13.9255C20.7483 13.9255 19.9384 13.0957 19.9384 12.0687C19.9384 11.0417 20.7483 10.212 21.7507 10.212C22.7532 10.212 23.5631 11.0417 23.5631 12.0687Z" fill="#353535"/>
</svg>
