<svg width="27" height="27" viewBox="0 0 27 27" fill="none" xmlns="http://www.w3.org/2000/svg">
<path opacity="0.5" d="M13.5 18.5625C15.4617 18.5625 16.8328 17.6396 17.6344 16.7748C18.1037 16.2633 18.9053 16.2264 19.4221 16.701C19.9336 17.1756 19.9652 17.9771 19.4906 18.4887C18.3357 19.749 16.3318 21.0938 13.5 21.0938C10.6682 21.0938 8.66426 19.749 7.50937 18.4887C7.03477 17.9771 7.01895 17.1756 7.57793 16.701C8.09473 16.2264 8.89629 16.2633 9.36563 16.7748C10.1672 17.6396 11.5383 18.5625 13.5 18.5625ZM10.9898 10.9688C10.9898 11.9021 10.2305 12.6562 9.30234 12.6562C8.36895 12.6562 7.61484 11.9021 7.61484 10.9688C7.61484 10.0354 8.36895 9.28125 9.30234 9.28125C10.2305 9.28125 10.9898 10.0354 10.9898 10.9688ZM16.0523 10.9688C16.0523 10.0354 16.8064 9.28125 17.7398 9.28125C18.668 9.28125 19.4273 10.0354 19.4273 10.9688C19.4273 11.9021 18.668 12.6562 17.7398 12.6562C16.8064 12.6562 16.0523 11.9021 16.0523 10.9688ZM27 13.5C27 20.9566 20.9566 27 13.5 27C6.04336 27 0 20.9566 0 13.5C0 6.04336 6.04336 0 13.5 0C20.9566 0 27 6.04336 27 13.5ZM13.5 2.53125C7.44082 2.53125 2.53125 7.44082 2.53125 13.5C2.53125 19.5592 7.44082 24.4688 13.5 24.4688C19.5592 24.4688 24.4688 19.5592 24.4688 13.5C24.4688 7.44082 19.5592 2.53125 13.5 2.53125Z" fill="#B3B3B3"/>
</svg>
