<svg width="29" height="26" viewBox="0 0 29 26" fill="none" xmlns="http://www.w3.org/2000/svg">
<path d="M28.9924 12.9211C28.9924 13.8314 28.2371 14.5445 27.3811 14.5445H25.7699L25.8051 22.6461C25.8051 22.7827 25.7951 22.9192 25.78 23.0558V23.87C25.78 24.9876 24.8787 25.8929 23.7659 25.8929H22.9603C22.9049 25.8929 22.8495 25.8929 22.7941 25.8878C22.7236 25.8929 22.6531 25.8929 22.5827 25.8929H20.9462H19.7378C18.625 25.8929 17.7237 24.9876 17.7237 23.87V22.6562V19.4196C17.7237 18.5245 17.0037 17.8013 16.1125 17.8013H12.89C11.9988 17.8013 11.2787 18.5245 11.2787 19.4196V22.6562V23.87C11.2787 24.9876 10.3774 25.8929 9.26468 25.8929H8.05624H6.45003C6.3745 25.8929 6.29897 25.8878 6.22345 25.8827C6.16302 25.8878 6.1026 25.8929 6.04218 25.8929H5.23656C4.12379 25.8929 3.2225 24.9876 3.2225 23.87V18.2059C3.2225 18.1604 3.2225 18.1098 3.22753 18.0643V14.5445H1.61125C0.704921 14.5445 0 13.8365 0 12.9211C0 12.466 0.151055 12.0614 0.503515 11.7074L13.4136 0.404576C13.7661 0.050572 14.1689 0 14.5214 0C14.8738 0 15.2766 0.101144 15.5788 0.354004L28.4385 11.7074C28.8413 12.0614 29.0427 12.466 28.9924 12.9211Z" fill="#D6DADE"/>
</svg>
