<svg width="24" height="36" viewBox="0 0 24 36" fill="none" xmlns="http://www.w3.org/2000/svg">
<path d="M4.02602 4.67923C4.859 3.42831 6.0083 2.4203 7.35707 1.75736C8.77427 1.05365 10.3374 0.694346 11.9196 0.710481C13.0534 0.70352 14.1829 0.858055 15.2731 1.16947C16.1968 1.42055 17.0756 1.81293 17.8795 2.33255L17.7633 7.47318C16.9561 7.19277 16.1299 6.9711 15.2907 6.81009C14.3737 6.62675 13.4406 6.53424 12.5055 6.5347C11.6576 6.52313 10.8133 6.64882 10.0055 6.90677C9.33831 7.10818 8.73127 7.47016 8.23695 7.96146C7.82635 8.39842 7.59277 8.97328 7.58168 9.57279C7.57059 10.1723 7.78225 10.7538 8.17641 11.2056C8.62438 11.6662 9.18946 11.9969 9.8102 12.1626C10.5694 12.3815 11.356 12.4909 12.1461 12.4869C13.0565 12.4888 13.9643 12.3883 14.8522 12.187L20.3024 11.0933V16.5835L16.1032 17.5611C13.333 18.0766 10.6719 19.0649 8.23695 20.4829C7.48716 20.8901 6.85546 21.485 6.40492 22.2095C5.95438 22.9341 5.70015 23.7632 5.66664 24.6158C5.65835 25.0926 5.74663 25.5666 5.92641 26.0083C6.10618 26.45 6.37363 26.8506 6.71254 27.1861C7.58103 27.9893 8.64619 28.5489 9.80043 28.8081C11.4459 29.2129 13.1375 29.3998 14.8317 29.3648C15.8103 29.3648 16.8265 29.3194 17.8805 29.2281C18.9345 29.1367 19.9684 29.0099 20.9811 28.8472C21.9898 28.6852 22.9036 28.4986 23.7243 28.2886V34.2095C22.9918 34.4646 22.2459 34.678 21.4889 34.8472C20.6609 35.0345 19.7937 35.1937 18.8883 35.3257C17.983 35.4577 17.094 35.555 16.2213 35.6177C15.348 35.6844 14.5349 35.7183 13.7809 35.7183C11.4302 35.7727 9.09366 35.3369 6.92055 34.439C5.10171 33.6847 3.53588 32.4275 2.4059 30.815C1.31898 29.1853 0.759739 27.2607 0.805314 25.3023C0.820406 23.1738 1.53051 21.1077 2.8268 19.4195C4.35868 17.4463 6.41375 15.9433 8.75844 15.0816L8.77992 16.1958C7.61138 16.0848 6.49507 15.6553 5.55336 14.9546C4.66219 14.2795 3.95395 13.3926 3.49184 12.3745C3.01165 11.3162 2.76843 10.1656 2.77895 9.00345C2.74836 7.46893 3.18317 5.96192 4.02602 4.67923Z" fill="white"/>
</svg>
