<svg width="115" height="116" viewBox="0 0 115 116" fill="none" xmlns="http://www.w3.org/2000/svg">
<path fill-rule="evenodd" clip-rule="evenodd" d="M37.4657 9.90371C42.3262 4.31397 49.4991 0.77002 57.5 0.77002C65.5005 0.77002 72.6731 4.31362 77.5336 9.90288C84.9237 9.38655 92.5025 11.9525 98.1606 17.6106C103.819 23.2686 106.385 30.8475 105.868 38.2376C111.457 43.098 115 50.2701 115 58.27C115 66.2715 111.456 73.4447 105.865 78.3052C106.38 85.6942 103.814 93.2714 98.1573 98.9285C92.5002 104.586 84.923 107.152 77.5341 106.636C72.6736 112.226 65.5009 115.77 57.5 115.77C49.4996 115.77 42.3271 112.226 37.4666 106.637C30.0764 107.154 22.4975 104.588 16.8394 98.9297C11.1813 93.2716 8.61532 85.6927 9.13166 78.3025C3.54309 73.442 0 66.27 0 58.27C0 50.2697 3.54345 43.0972 9.1325 38.2368C8.61674 30.8472 11.1828 23.2692 16.8404 17.6116C22.498 11.9539 30.0761 9.38791 37.4657 9.90371ZM78.7915 47.5716C80.2114 45.5839 79.751 42.8214 77.7632 41.4016C75.7754 39.9817 73.0129 40.4421 71.5931 42.4299L52.5125 69.1427L42.9353 59.5655C41.208 57.8382 38.4074 57.8382 36.6801 59.5655C34.9528 61.2928 34.9528 64.0934 36.6801 65.8207L49.9493 79.0899C50.8687 80.0093 52.146 80.4776 53.4417 80.3703C54.7375 80.2631 55.9204 79.5912 56.6761 78.5332L78.7915 47.5716Z" fill="#0F172A"/>
</svg>
