<svg width="75" height="75" viewBox="0 0 75 75" fill="none" xmlns="http://www.w3.org/2000/svg">
<path d="M37.21 74.42C57.7605 74.42 74.42 57.7605 74.42 37.21C74.42 16.6595 57.7605 0 37.21 0C16.6595 0 0 16.6595 0 37.21C0 57.7605 16.6595 74.42 37.21 74.42Z" fill="#090909"/>
<path d="M29.026 22.6792C29.859 21.4283 31.0083 20.4203 32.3571 19.7574C33.7743 19.0536 35.3374 18.6943 36.9196 18.7105C38.0534 18.7035 39.1829 18.8581 40.2731 19.1695C41.1968 19.4206 42.0756 19.8129 42.8795 20.3326L42.7633 25.4732C41.9561 25.1928 41.1299 24.9711 40.2907 24.8101C39.3737 24.6267 38.4406 24.5342 37.5055 24.5347C36.6576 24.5231 35.8133 24.6488 35.0055 24.9068C34.3383 25.1082 33.7313 25.4702 33.237 25.9615C32.8264 26.3984 32.5928 26.9733 32.5817 27.5728C32.5706 28.1723 32.7822 28.7538 33.1764 29.2056C33.6244 29.6662 34.1895 29.9969 34.8102 30.1626C35.5694 30.3815 36.356 30.4909 37.1461 30.4869C38.0565 30.4888 38.9643 30.3883 39.8522 30.187L45.3024 29.0933V34.5835L41.1032 35.5611C38.333 36.0766 35.6719 37.0649 33.237 38.4829C32.4872 38.8901 31.8555 39.485 31.4049 40.2095C30.9544 40.9341 30.7001 41.7632 30.6666 42.6158C30.6584 43.0926 30.7466 43.5666 30.9264 44.0083C31.1062 44.45 31.3736 44.8506 31.7125 45.1861C32.581 45.9893 33.6462 46.5489 34.8004 46.8081C36.4459 47.2129 38.1375 47.3998 39.8317 47.3648C40.8103 47.3648 41.8265 47.3194 42.8805 47.2281C43.9345 47.1367 44.9684 47.0099 45.9811 46.8472C46.9898 46.6852 47.9036 46.4986 48.7243 46.2886V52.2095C47.9918 52.4646 47.2459 52.678 46.4889 52.8472C45.6609 53.0345 44.7937 53.1937 43.8883 53.3257C42.983 53.4577 42.094 53.555 41.2213 53.6177C40.348 53.6844 39.5349 53.7183 38.7809 53.7183C36.4302 53.7727 34.0937 53.3369 31.9205 52.439C30.1017 51.6847 28.5359 50.4275 27.4059 48.815C26.319 47.1853 25.7597 45.2607 25.8053 43.3023C25.8204 41.1738 26.5305 39.1077 27.8268 37.4195C29.3587 35.4463 31.4137 33.9433 33.7584 33.0816L33.7799 34.1958C32.6114 34.0848 31.4951 33.6553 30.5534 32.9546C29.6622 32.2795 28.9539 31.3926 28.4918 30.3745C28.0116 29.3162 27.7684 28.1656 27.7789 27.0035C27.7484 25.4689 28.1832 23.9619 29.026 22.6792Z" fill="white"/>
</svg>
