<svg width="15" height="16" viewBox="0 0 15 16" fill="none" xmlns="http://www.w3.org/2000/svg">
<path d="M7.55079 15.6001C6.07723 15.6003 4.63692 15.1635 3.41163 14.345C2.18633 13.5264 1.23148 12.3628 0.667485 11.0015C0.103488 9.64012 -0.0442593 8.14203 0.243169 6.69678C0.530597 5.25153 1.24027 3.92405 2.28223 2.88208C3.32419 1.84012 4.65143 1.13045 6.09668 0.843022C7.54194 0.555594 9.04002 0.703342 10.4014 1.26734C11.7627 1.83134 12.9261 2.78642 13.7446 4.01172C14.5632 5.23702 15.0002 6.67733 15 8.15088C14.9974 10.1257 14.2118 12.0189 12.8154 13.4153C11.419 14.8117 9.52557 15.5975 7.55079 15.6001V15.6001ZM7.55079 1.73999C6.28277 1.7398 5.04319 2.11574 3.98877 2.82007C2.93436 3.5244 2.11283 4.52559 1.62745 5.69703C1.14206 6.86847 1.01495 8.15745 1.26221 9.40113C1.50947 10.6448 2.12005 11.7871 3.01661 12.6838C3.91316 13.5805 5.05519 14.1913 6.29883 14.4387C7.54247 14.6862 8.83142 14.5592 10.0029 14.074C11.1744 13.5888 12.1759 12.7672 12.8804 11.7129C13.5849 10.6586 13.9609 9.4189 13.9609 8.15088C13.9591 6.45123 13.2832 4.8219 12.0815 3.61988C10.8799 2.41785 9.25044 1.7414 7.55079 1.73902V1.73999Z" fill="#B2B2B2"/>
<path d="M5.42578 4.99995C5.95928 4.9037 6.50089 4.85818 7.04297 4.86396C7.71673 4.79498 8.39167 4.98519 8.93018 5.39594C9.09908 5.55395 9.23183 5.74621 9.32031 5.95991C9.40879 6.1736 9.45064 6.4038 9.44287 6.63496C9.44788 7.0091 9.33047 7.37458 9.1084 7.67573C8.88633 7.97688 8.5718 8.19714 8.21289 8.30292V8.331C8.47526 8.44603 8.70243 8.62849 8.87109 8.86005C9.03976 9.09162 9.14384 9.36386 9.17285 9.64887C9.28693 10.259 9.45424 10.858 9.67285 11.4389H8.80176C8.60625 10.9343 8.46099 10.4118 8.36719 9.87885C8.16719 8.97885 7.82308 8.63903 7.05908 8.61103H6.26611V11.4389H5.42285L5.42578 4.99995ZM6.26904 7.97187H7.13086C8.03086 7.97187 8.60303 7.47786 8.60303 6.73286C8.60303 5.88986 7.99303 5.52191 7.10303 5.51191C6.82418 5.5046 6.54541 5.53123 6.27295 5.59101L6.26904 7.97187Z" fill="#B2B2B2"/>
</svg>
