<svg width="41" height="48" viewBox="0 0 41 48" fill="none" xmlns="http://www.w3.org/2000/svg">
<path fill-rule="evenodd" clip-rule="evenodd" d="M10.9463 10.4902H26.7871C28.7742 10.4934 30.6791 11.2847 32.083 12.6909C33.4869 14.0971 34.2754 16.0032 34.2754 17.9902V38.8242C36.0435 38.824 37.739 38.1213 38.9893 36.8711C40.2395 35.6208 40.9421 33.9253 40.9424 32.1572V10.731C40.9569 9.09748 40.3558 7.5185 39.2588 6.30811C38.1618 5.09771 36.6495 4.34492 35.0225 4.19922C34.5251 4.15722 34.0251 4.11896 33.5225 4.08496C32.9598 3.00125 32.11 2.09294 31.0664 1.45898C30.0228 0.825032 28.8246 0.490064 27.6035 0.490235H24.2705C23.0493 0.489881 21.8514 0.824534 20.8076 1.4585C19.7638 2.09246 18.9143 3.0011 18.3516 4.08496C17.8522 4.11896 17.3522 4.15722 16.8516 4.19922C15.268 4.34391 13.7925 5.06384 12.7041 6.22315C11.6157 7.38245 10.9908 8.90073 10.9463 10.4902ZM24.2764 3.82324C23.3921 3.82324 22.5442 4.17407 21.9189 4.79932C21.2937 5.42456 20.9424 6.27299 20.9424 7.15723H30.9424C30.9425 6.71945 30.8559 6.28584 30.6885 5.88135C30.521 5.47685 30.2753 5.10941 29.9658 4.79981C29.6563 4.4902 29.2892 4.24422 28.8848 4.07666C28.4803 3.9091 28.0472 3.82324 27.6094 3.82324H24.2764Z" fill="#090909"/>
<path fill-rule="evenodd" clip-rule="evenodd" d="M0.942383 17.9902C0.942383 17.443 1.04938 16.9011 1.25879 16.3955C1.4682 15.8899 1.77517 15.4304 2.16211 15.0435C2.54905 14.6565 3.00908 14.3495 3.51465 14.1401C4.02021 13.9307 4.56216 13.8232 5.10938 13.8232H26.7764C27.8814 13.8235 28.9404 14.2625 29.7217 15.0439C30.5029 15.8254 30.9424 16.8853 30.9424 17.9902V42.9902C30.9424 44.0952 30.5029 45.1546 29.7217 45.936C28.9404 46.7175 27.8814 47.157 26.7764 47.1572H5.10938C4.00422 47.1572 2.94357 46.718 2.16211 45.9365C1.38065 45.1551 0.942383 44.0954 0.942383 42.9902V17.9902ZM7.60938 23.8242C7.60924 23.6053 7.65162 23.3883 7.73535 23.186C7.81908 22.9837 7.94186 22.7998 8.09668 22.645C8.2515 22.4902 8.43539 22.3674 8.6377 22.2837C8.84 22.2 9.05742 22.1571 9.27637 22.1572H9.29199C9.51094 22.1571 9.72738 22.2 9.92969 22.2837C10.132 22.3674 10.3159 22.4902 10.4707 22.645C10.6255 22.7998 10.7483 22.9837 10.832 23.186C10.9158 23.3883 10.9591 23.6053 10.959 23.8242V23.8398C10.9591 24.0588 10.9158 24.2757 10.832 24.478C10.7483 24.6803 10.6255 24.8642 10.4707 25.019C10.3159 25.1739 10.132 25.2966 9.92969 25.3804C9.72738 25.4641 9.51094 25.507 9.29199 25.5068H9.27637C9.05742 25.507 8.84 25.4641 8.6377 25.3804C8.43539 25.2966 8.2515 25.1739 8.09668 25.019C7.94186 24.8642 7.81908 24.6803 7.73535 24.478C7.65162 24.2757 7.60924 24.0588 7.60938 23.8398V23.8242ZM12.6094 23.8242C12.6092 23.6053 12.6516 23.3883 12.7354 23.186C12.8191 22.9837 12.9419 22.7998 13.0967 22.645C13.2515 22.4902 13.4354 22.3674 13.6377 22.2837C13.84 22.2 14.0574 22.1571 14.2764 22.1572H22.6094C22.8317 22.1518 23.0528 22.1907 23.2598 22.272C23.4667 22.3533 23.6553 22.4751 23.8145 22.6304C23.9736 22.7857 24.0992 22.9714 24.1855 23.1763C24.2719 23.3812 24.3164 23.6014 24.3164 23.8237C24.3164 24.0461 24.2719 24.2658 24.1855 24.4707C24.0992 24.6756 23.9736 24.8613 23.8145 25.0166C23.6553 25.1719 23.4667 25.2937 23.2598 25.375C23.0528 25.4563 22.8317 25.4957 22.6094 25.4902H14.2764C14.0575 25.4904 13.8399 25.4469 13.6377 25.3633C13.4355 25.2796 13.2525 25.1572 13.0977 25.0024C12.9428 24.8477 12.8201 24.6641 12.7363 24.4619C12.6525 24.2597 12.6094 24.0431 12.6094 23.8242ZM7.60938 30.4902C7.60938 30.2714 7.65254 30.0542 7.73633 29.8521C7.82012 29.6499 7.94285 29.4662 8.09766 29.3115C8.25246 29.1568 8.43545 29.0343 8.6377 28.9507C8.83994 28.867 9.0575 28.8241 9.27637 28.8242H9.29199C9.51086 28.8241 9.72744 28.867 9.92969 28.9507C10.1319 29.0343 10.3159 29.1568 10.4707 29.3115C10.6255 29.4662 10.7482 29.6499 10.832 29.8521C10.9158 30.0542 10.959 30.2714 10.959 30.4902V30.5068C10.959 30.7257 10.9158 30.9428 10.832 31.145C10.7483 31.3473 10.6255 31.5308 10.4707 31.6855C10.3159 31.8403 10.1319 31.9631 9.92969 32.0469C9.72744 32.1306 9.51091 32.1738 9.29199 32.1738H9.27637C9.05745 32.1738 8.83994 32.1306 8.6377 32.0469C8.43545 31.9631 8.25245 31.8403 8.09766 31.6855C7.94286 31.5308 7.8201 31.3473 7.73633 31.145C7.65255 30.9428 7.60938 30.7257 7.60938 30.5068V30.4902ZM12.6094 30.4902C12.6094 30.2714 12.6525 30.0542 12.7363 29.8521C12.8201 29.6499 12.9428 29.4662 13.0977 29.3115C13.2525 29.1568 13.4355 29.0343 13.6377 28.9507C13.8399 28.867 14.0575 28.8241 14.2764 28.8242H22.6094C22.8317 28.8188 23.0528 28.8577 23.2598 28.939C23.4667 29.0203 23.6553 29.1421 23.8145 29.2974C23.9736 29.4527 24.0992 29.6384 24.1855 29.8433C24.2719 30.0482 24.3164 30.2684 24.3164 30.4907C24.3164 30.7131 24.2719 30.9328 24.1855 31.1377C24.0992 31.3426 23.9736 31.5283 23.8145 31.6836C23.6553 31.8389 23.4667 31.9607 23.2598 32.042C23.0528 32.1233 22.8317 32.1627 22.6094 32.1572H14.2764C14.0574 32.1574 13.84 32.114 13.6377 32.0303C13.4354 31.9465 13.2515 31.8238 13.0967 31.6689C12.9419 31.5141 12.8191 31.3302 12.7354 31.1279C12.6516 30.9256 12.6092 30.7092 12.6094 30.4902ZM7.60938 37.1572C7.60924 36.9383 7.65162 36.7214 7.73535 36.519C7.81908 36.3167 7.94186 36.1328 8.09668 35.978C8.2515 35.8232 8.43539 35.7004 8.6377 35.6167C8.84 35.533 9.05742 35.4901 9.27637 35.4902H9.29199C9.51094 35.4901 9.72738 35.533 9.92969 35.6167C10.132 35.7004 10.3159 35.8232 10.4707 35.978C10.6255 36.1328 10.7483 36.3167 10.832 36.519C10.9158 36.7214 10.9591 36.9383 10.959 37.1572V37.1738C10.959 37.3927 10.9158 37.6098 10.832 37.812C10.7482 38.0142 10.6255 38.1978 10.4707 38.3525C10.3159 38.5073 10.1319 38.6297 9.92969 38.7134C9.72744 38.797 9.51086 38.84 9.29199 38.8398H9.27637C9.0575 38.84 8.83994 38.797 8.6377 38.7134C8.43545 38.6297 8.25246 38.5073 8.09766 38.3525C7.94285 38.1978 7.82012 38.0142 7.73633 37.812C7.65254 37.6098 7.60938 37.3927 7.60938 37.1738V37.1572ZM12.6094 37.1572C12.6092 36.9383 12.6516 36.7214 12.7354 36.519C12.8191 36.3167 12.9419 36.1328 13.0967 35.978C13.2515 35.8232 13.4354 35.7004 13.6377 35.6167C13.84 35.533 14.0574 35.4901 14.2764 35.4902H22.6094C23.0515 35.4902 23.4755 35.6654 23.7881 35.978C24.1007 36.2907 24.2764 36.7151 24.2764 37.1572C24.2764 37.5993 24.1007 38.0233 23.7881 38.3359C23.4755 38.6486 23.0515 38.8242 22.6094 38.8242H14.2764C13.8343 38.8242 13.4103 38.6486 13.0977 38.3359C12.785 38.0233 12.6094 37.5993 12.6094 37.1572Z" fill="#090909"/>
</svg>
