<svg width="51" height="51" viewBox="0 0 51 51" fill="none" xmlns="http://www.w3.org/2000/svg">
<path d="M0.963562 12.4643C0.963976 22.6642 5.01619 32.4459 12.2284 39.6584C19.4407 46.8709 29.2226 50.924 39.4225 50.9248H45.193C46.7226 50.9244 48.1885 50.316 49.2699 49.2342C50.3514 48.1525 50.959 46.6854 50.959 45.1558V41.6389C50.9591 40.9952 50.7451 40.37 50.3487 39.8629C49.9523 39.3557 49.3972 38.9958 48.7725 38.8406L37.4314 36.0072C36.8804 35.8692 36.3005 35.8967 35.7652 36.0865C35.2299 36.2764 34.7619 36.6195 34.421 37.0737L31.934 40.3908C31.5911 40.8649 31.1052 41.2161 30.547 41.3917C29.9889 41.5673 29.3877 41.5581 28.8351 41.3658C24.6369 39.8227 20.8247 37.3847 17.6618 34.222C14.4989 31.0594 12.0615 27.2483 10.518 23.0502C10.3254 22.4976 10.3168 21.8967 10.4921 21.3383C10.6674 20.7799 11.0175 20.2932 11.4915 19.9498L14.8085 17.4613C15.2629 17.1211 15.6069 16.6548 15.7973 16.1201C15.9876 15.5854 16.0153 15.0062 15.8781 14.4555L13.0432 3.11126C12.8877 2.48671 12.528 1.93302 12.0209 1.53664C11.5139 1.14027 10.8885 0.924914 10.2449 0.924805H6.72798C5.19838 0.924805 3.73129 1.5324 2.64955 2.61385C1.56782 3.6953 0.959399 5.16115 0.958984 6.69075L0.963562 12.4643Z" fill="black"/>
</svg>
