<svg width="40" height="51" viewBox="0 0 40 51" fill="none" xmlns="http://www.w3.org/2000/svg">
<path fill-rule="evenodd" clip-rule="evenodd" d="M5.02288 0.566406C2.55732 0.566406 0.558594 2.56513 0.558594 5.03069V46.1021C0.558594 48.5677 2.55732 50.5664 5.02288 50.5664H35.38C37.8456 50.5664 39.8443 48.5677 39.8443 46.1021V27.3521C39.8443 22.421 35.8468 18.4235 30.9157 18.4235H26.4515C23.9859 18.4235 21.9872 16.4248 21.9872 13.9593V9.49498C21.9872 4.56386 17.9897 0.566406 13.0586 0.566406H5.02288ZM9.48717 32.7093C9.48717 31.723 10.2867 30.9235 11.2729 30.9235H29.13C30.1162 30.9235 30.9157 31.723 30.9157 32.7093C30.9157 33.6955 30.1162 34.495 29.13 34.495H11.2729C10.2867 34.495 9.48717 33.6955 9.48717 32.7093ZM11.2729 38.0664C10.2867 38.0664 9.48717 38.8659 9.48717 39.8521C9.48717 40.8383 10.2867 41.6378 11.2729 41.6378H20.2015C21.1877 41.6378 21.9872 40.8383 21.9872 39.8521C21.9872 38.8659 21.1877 38.0664 20.2015 38.0664H11.2729Z" fill="#0F172A"/>
<path d="M22.5138 1.31856C24.4109 3.5104 25.5586 6.36866 25.5586 9.49498V13.9593C25.5586 14.4524 25.9583 14.8521 26.4515 14.8521H30.9157C34.0421 14.8521 36.9003 15.9998 39.0922 17.8969C36.9782 9.80421 30.6065 3.43254 22.5138 1.31856Z" fill="#0F172A"/>
</svg>
