<svg width="41" height="40" viewBox="0 0 41 40" fill="none" xmlns="http://www.w3.org/2000/svg">
<path fill-rule="evenodd" clip-rule="evenodd" d="M34.3614 34.5589C37.7483 31.3688 39.917 27.0981 40.4942 22.4813C41.0714 17.8645 40.0209 13.1907 37.5235 9.26496C35.0261 5.33926 31.2379 2.40723 26.8116 0.973453C22.3853 -0.460326 17.5973 -0.306365 13.2725 1.40949C8.94772 3.12534 5.35662 6.29546 3.11724 10.3738C0.87786 14.4522 0.130662 19.1837 1.00396 23.7537C1.87725 28.3238 4.31605 32.4466 7.90142 35.4119C11.4868 38.3773 15.9948 39.9995 20.6475 39.9998C25.7462 40.0056 30.6535 38.0587 34.3614 34.5589ZM8.63579 31.9232C10.0773 30.1228 11.9055 28.6694 13.9844 27.6707C16.0634 26.6721 18.3402 26.1536 20.6465 26.1536C22.9529 26.1536 25.2297 26.6721 27.3086 27.6707C29.3876 28.6694 31.2158 30.1228 32.6573 31.9232C31.0843 33.508 29.2128 34.766 27.1514 35.6243C25.0901 36.4827 22.8795 36.9246 20.6465 36.9246C18.4136 36.9246 16.203 36.4827 14.1417 35.6243C12.0803 34.766 10.2088 33.508 8.63579 31.9232ZM28.336 13.847C28.3358 15.3683 27.8845 16.8556 27.0391 18.1204C26.1937 19.3853 24.9926 20.3709 23.587 20.9529C22.1814 21.535 20.6347 21.6869 19.1426 21.39C17.6506 21.093 16.2798 20.3604 15.2042 19.2845C14.1285 18.2086 13.3963 16.8377 13.0997 15.3455C12.8031 13.8534 12.9558 12.3071 13.5381 10.9017C14.1205 9.49622 15.1061 8.29506 16.3711 7.45002C17.6362 6.60497 19.1232 6.15392 20.6446 6.15412C21.655 6.15385 22.6564 6.35257 23.5899 6.73908C24.5234 7.12558 25.3715 7.69216 26.086 8.40656C26.8005 9.12096 27.3673 9.96917 27.754 10.9027C28.1406 11.8361 28.3391 12.8366 28.3389 13.847H28.336Z" fill="#090909"/>
</svg>
