<svg width="52" height="49" viewBox="0 0 52 49" fill="none" xmlns="http://www.w3.org/2000/svg">
<path d="M44.189 0.641602H7.811C3.4971 0.641602 0 3.85478 0 7.81844V16.5003C0 20.4639 3.4971 23.6771 7.811 23.6771H44.189C48.5029 23.6771 52 20.4639 52 16.5003V7.81844C52 3.85478 48.5029 0.641602 44.189 0.641602Z" fill="#090909"/>
<path d="M44.1877 25.3838H34.7387C30.4248 25.3838 26.9277 28.597 26.9277 32.5606V41.2425C26.9277 45.2061 30.4248 48.4193 34.7387 48.4193H44.1877C48.5016 48.4193 51.9987 45.2061 51.9987 41.2425V32.5606C51.9987 28.597 48.5016 25.3838 44.1877 25.3838Z" fill="#090909"/>
<path d="M17.26 25.3838H7.811C3.4971 25.3838 0 28.597 0 32.5606V41.2425C0 45.2061 3.4971 48.4193 7.811 48.4193H17.26C21.5739 48.4193 25.071 45.2061 25.071 41.2425V32.5606C25.071 28.597 21.5739 25.3838 17.26 25.3838Z" fill="#090909"/>
<path d="M12.7286 11.3755H18.3744L17.2452 16.8096C16.5395 17.2683 15.7279 17.6329 14.8105 17.9035C13.8107 18.1975 12.8227 18.3445 11.8465 18.3445C11.2231 18.3445 10.6879 18.2975 10.2409 18.2034C9.72342 18.0975 9.24706 17.9211 8.81186 17.6741C7.29457 16.7919 6.53592 15.257 6.53592 13.0693C6.53592 10.9403 7.16518 9.129 8.42372 7.63523C9.75282 6.07088 11.4524 5.28871 13.5225 5.28871C16.4748 5.28871 18.245 6.61781 18.8331 9.27603L16.416 9.54067C15.9926 8.10571 15.0457 7.38823 13.5755 7.38823C12.2111 7.38823 11.1172 7.91752 10.2939 8.97609C9.47054 10.0112 9.05887 11.3579 9.05887 13.0163C9.05887 15.1217 9.99395 16.1744 11.8641 16.1744C13.005 16.1744 14.093 15.9098 15.1281 15.3805L15.5162 13.4927H12.2875L12.7286 11.3755ZM22.0498 18.1328H19.4562L22.1027 5.50042H27.2368C27.6485 5.50042 28.0072 5.51807 28.313 5.55335C28.6894 5.6004 29.0188 5.67685 29.301 5.78271C30.5125 6.25319 31.1183 7.20591 31.1183 8.64088C31.1183 10.3934 30.4655 11.6872 29.1599 12.5223C28.5718 12.887 27.8837 13.1281 27.0957 13.2457C26.7663 13.281 26.3899 13.3045 25.9665 13.3163C25.7901 13.328 25.5901 13.3339 25.3666 13.3339H23.0554L22.0498 18.1328ZM23.4965 11.2168H25.1902L25.9842 11.1815C26.5252 11.1344 26.9663 11.0227 27.3074 10.8463C28.1307 10.4346 28.5424 9.75827 28.5424 8.81731C28.5424 8.26449 28.2777 7.90575 27.7485 7.74108C27.5367 7.68227 27.278 7.64111 26.9722 7.61758H24.2551L23.4965 11.2168ZM38.2244 15.3452H33.2138L31.6965 18.1328H29.0324L36.1778 5.50042H39.0536L41.1002 18.1328H38.6478L38.2244 15.3452ZM37.9068 13.2281L37.1835 8.14687L34.3959 13.2281H37.9068Z" fill="white"/>
<path d="M45.2 35.7734H33.729C33.0502 35.7734 32.5 36.279 32.5 36.9027C32.5 37.5263 33.0502 38.0319 33.729 38.0319H45.2C45.8788 38.0319 46.429 37.5263 46.429 36.9027C46.429 36.279 45.8788 35.7734 45.2 35.7734Z" fill="white"/>
<path d="M17.506 35.9233H7.565C6.97682 35.9233 6.5 36.3614 6.5 36.9019C6.5 37.4423 6.97682 37.8804 7.565 37.8804H17.506C18.0942 37.8804 18.571 37.4423 18.571 36.9019C18.571 36.3614 18.0942 35.9233 17.506 35.9233Z" fill="white"/>
<path d="M13.6006 41.4694V32.3355C13.6006 31.795 13.1238 31.3569 12.5356 31.3569C11.9474 31.3569 11.4706 31.795 11.4706 32.3355V41.4694C11.4706 42.0098 11.9474 42.4479 12.5356 42.4479C13.1238 42.4479 13.6006 42.0098 13.6006 41.4694Z" fill="white"/>
</svg>
