<svg width="41" height="36" viewBox="0 0 41 36" fill="none" xmlns="http://www.w3.org/2000/svg">
<path d="M3.64583 0.283203C1.6323 0.283203 0 1.9155 0 3.92904V5.38737C0 7.40091 1.63229 9.0332 3.64583 9.0332H37.1875C39.201 9.0332 40.8333 7.40091 40.8333 5.38737V3.92904C40.8333 1.9155 39.201 0.283203 37.1875 0.283203H3.64583Z" fill="#FF5A5A"/>
<path fill-rule="evenodd" clip-rule="evenodd" d="M3.08543 11.9499L4.13499 29.7924C4.31636 32.8757 6.86965 35.2832 9.95826 35.2832H30.8745C33.9631 35.2832 36.5164 32.8757 36.6978 29.7924L37.7473 11.9499H3.08543ZM15.0105 17.4812C15.58 16.9117 16.5033 16.9117 17.0729 17.4812L20.4167 20.825L23.7605 17.4812C24.33 16.9117 25.2533 16.9117 25.8229 17.4812C26.3924 18.0507 26.3924 18.9741 25.8229 19.5436L22.4791 22.8874L25.8229 26.2312C26.3924 26.8007 26.3924 27.7241 25.8229 28.2936C25.2533 28.8631 24.33 28.8631 23.7605 28.2936L20.4167 24.9498L17.0729 28.2936C16.5033 28.8631 15.58 28.8631 15.0105 28.2936C14.441 27.7241 14.441 26.8007 15.0105 26.2312L18.3543 22.8874L15.0105 19.5436C14.441 18.9741 14.441 18.0507 15.0105 17.4812Z" fill="#FF5A5A"/>
</svg>
