<svg width="40" height="41" viewBox="0 0 40 41" fill="none" xmlns="http://www.w3.org/2000/svg">
<path d="M37.831 28.0059C34.429 29.4209 30.6836 29.7942 27.0693 29.0781C23.455 28.362 20.1347 26.5887 17.5293 23.9834C14.9239 21.3781 13.1508 18.0586 12.4345 14.4443C11.7183 10.8301 12.0909 7.08465 13.5058 3.68262C10.6858 4.85818 8.19885 6.71015 6.26461 9.0752C4.33037 11.4402 3.00862 14.2449 2.41598 17.2422C1.82333 20.2394 1.97758 23.3366 2.86617 26.2598C3.75476 29.183 5.35025 31.8426 7.5107 34.0029C9.67115 36.1633 12.3306 37.758 15.2539 38.6465C18.1771 39.535 21.2742 39.6894 24.2714 39.0967C27.2687 38.5039 30.0735 37.1824 32.4384 35.248C34.8034 33.3137 36.6556 30.826 37.831 28.0059V28.0059Z" stroke="#BEBEBF" stroke-width="3" stroke-miterlimit="10"/>
</svg>
