<svg width="116" height="105" viewBox="0 0 116 105" fill="none" xmlns="http://www.w3.org/2000/svg">
<path fill-rule="evenodd" clip-rule="evenodd" d="M43.5762 8.60791C45.0373 6.0751 47.1398 3.97174 49.6719 2.50928C52.2039 1.04681 55.076 0.276855 58 0.276855C60.924 0.276855 63.7961 1.04681 66.3281 2.50928C68.8602 3.97174 70.9627 6.0751 72.4238 8.60791L113.247 79.3672C114.708 81.8987 115.476 84.7697 115.476 87.6924C115.475 90.6151 114.705 93.4862 113.243 96.0171C111.781 98.548 109.68 100.65 107.148 102.111C104.617 103.572 101.746 104.341 98.8232 104.341H17.1768C14.2541 104.341 11.3828 103.572 8.85156 102.111C6.32029 100.65 4.21859 98.548 2.75684 96.0171C1.29509 93.4862 0.52505 90.6151 0.524414 87.6924C0.523779 84.7697 1.29228 81.8987 2.75293 79.3672L43.5762 8.60791ZM58.001 37.731C59.105 37.7312 60.1637 38.17 60.9443 38.9507C61.725 39.7313 62.1638 40.79 62.1641 41.894V62.709C62.1641 63.8131 61.725 64.8721 60.9443 65.6528C60.1636 66.4335 59.1051 66.8721 58.001 66.8721C56.8969 66.8721 55.8383 66.4335 55.0576 65.6528C54.2769 64.8721 53.8379 63.8131 53.8379 62.709V41.894C53.8382 40.7902 54.2772 39.7318 55.0576 38.9512C55.8381 38.1705 56.8962 37.7315 58 37.731H58.001ZM58.001 83.5249C58.8243 83.5249 59.6289 83.2807 60.3135 82.8232C60.9981 82.3658 61.5316 81.7158 61.8467 80.9551C62.1618 80.1944 62.2446 79.3573 62.084 78.5498C61.9234 77.7423 61.5265 77.0007 60.9443 76.4185C60.3621 75.8363 59.621 75.4394 58.8135 75.2788C58.0059 75.1182 57.1689 75.201 56.4082 75.5161C55.6475 75.8312 54.9975 76.3647 54.54 77.0493C54.0826 77.7339 53.8379 78.5385 53.8379 79.3618C53.8379 80.4657 54.2761 81.5245 55.0566 82.3052C55.8371 83.0859 56.8961 83.5246 58 83.5249H58.001Z" fill="#090909"/>
</svg>
