<svg width="29" height="28" viewBox="0 0 29 28" fill="none" xmlns="http://www.w3.org/2000/svg">
<path d="M20.5996 4.62891L24.1191 8.14698M22.1191 17.314V23.647C22.1191 24.4426 21.8028 25.206 21.2402 25.7686C20.6776 26.3312 19.9148 26.647 19.1191 26.647H5.11914C4.32349 26.647 3.56066 26.3312 2.99805 25.7686C2.43544 25.206 2.11914 24.4426 2.11914 23.647V9.64698C2.11914 8.85133 2.43544 8.08849 2.99805 7.52589C3.56066 6.96328 4.32349 6.64698 5.11914 6.64698H11.4521M20.5996 4.62891L22.8496 2.37891C23.3192 1.91353 23.9541 1.65325 24.6152 1.65479C25.2764 1.65633 25.9105 1.91965 26.3779 2.38721C26.8454 2.85478 27.108 3.48828 27.1094 4.14942C27.1107 4.81056 26.8503 5.44557 26.3848 5.91505L12.2266 20.0732C11.5219 20.7782 10.6534 21.2963 9.69824 21.5811L6.11914 22.647L7.18359 19.0669C7.46888 18.1114 7.98823 17.2422 8.69336 16.5371L20.5996 4.62891Z" stroke="white" stroke-width="2.5" stroke-linecap="round" stroke-linejoin="round"/>
</svg>
