<svg width="49" height="38" viewBox="0 0 49 38" fill="none" xmlns="http://www.w3.org/2000/svg">
<path d="M46.708 6.82001V30.746C46.708 32.1057 46.1678 33.4098 45.2063 34.3713C44.2448 35.3328 42.9408 35.873 41.5811 35.873H7.3999C6.04014 35.873 4.73616 35.3328 3.77466 34.3713C2.81316 33.4098 2.27295 32.1057 2.27295 30.746V6.82001M46.708 6.82001C46.708 5.46024 46.1678 4.15614 45.2063 3.19464C44.2448 2.23314 42.9408 1.69299 41.5811 1.69299H7.3999C6.04014 1.69299 4.73616 2.23314 3.77466 3.19464C2.81316 4.15614 2.27295 5.46024 2.27295 6.82001M46.708 6.82001V7.37299C46.7078 8.24849 46.4835 9.1094 46.0564 9.87366C45.6293 10.6379 45.0137 11.2801 44.2681 11.739L27.177 22.256C26.3691 22.7537 25.4389 23.0172 24.49 23.0172C23.5411 23.0172 22.6109 22.7537 21.803 22.256L4.71289 11.739C3.9673 11.2801 3.35168 10.6379 2.92456 9.87366C2.49745 9.1094 2.27313 8.24849 2.27295 7.37299V6.82001" stroke="#B0AFB2" stroke-width="3" stroke-linecap="round" stroke-linejoin="round"/>
</svg>
