<svg width="48" height="42" viewBox="0 0 48 42" fill="none" xmlns="http://www.w3.org/2000/svg">
<path d="M7.32495 16.561C6.73855 21.0505 6.38907 25.5677 6.27795 30.094C12.4164 32.6567 18.2939 35.8046 23.829 39.494C29.3637 35.8047 35.2409 32.6568 41.379 30.094C41.2679 25.5677 40.9184 21.0505 40.332 16.561M7.32495 16.561C5.45828 15.933 3.56898 15.3553 1.65698 14.828C8.61494 9.94942 16.0424 5.77743 23.829 2.37402C31.6153 5.77738 39.0424 9.94937 46 14.828C44.0887 15.3547 42.1994 15.9324 40.332 16.561M7.32495 16.561C13.013 18.4745 18.532 20.8577 23.825 23.686C29.1178 20.8574 34.6368 18.4742 40.325 16.561M12.625 26.9091V19.072C16.2428 16.824 19.9796 14.7733 23.819 12.929M8.87805 37.553C10.0678 36.3666 11.0113 34.9568 11.6543 33.4045C12.2973 31.8523 12.6273 30.1882 12.625 28.5081V25.308M12.625 26.9091C12.9415 26.9091 13.2508 26.8152 13.5139 26.6394C13.777 26.4636 13.982 26.2136 14.1031 25.9213C14.2242 25.6289 14.256 25.3072 14.1942 24.9968C14.1325 24.6865 13.9801 24.4014 13.7563 24.1776C13.5326 23.9538 13.2475 23.8015 12.9371 23.7397C12.6268 23.678 12.3051 23.7097 12.0127 23.8308C11.7203 23.9519 11.4705 24.1569 11.2947 24.42C11.1189 24.6832 11.025 24.9925 11.025 25.309C11.025 25.5199 11.0667 25.7288 11.1477 25.9236C11.2287 26.1184 11.3476 26.2953 11.4972 26.444C11.6468 26.5927 11.8244 26.7102 12.0197 26.79C12.2149 26.8699 12.4241 26.9104 12.635 26.9091H12.625Z" stroke="#B0AFB2" stroke-width="3.275" stroke-linecap="round" stroke-linejoin="round"/>
</svg>
