<svg width="55" height="55" viewBox="0 0 55 55" fill="none" xmlns="http://www.w3.org/2000/svg">
<path d="M25.525 25.7L25.641 25.643C25.9973 25.465 26.3971 25.3928 26.7932 25.4351C27.1892 25.4774 27.5648 25.6323 27.8755 25.8815C28.1861 26.1307 28.4188 26.4638 28.546 26.8412C28.6732 27.2186 28.6895 27.6246 28.593 28.011L26.624 35.889C26.5271 36.2756 26.5432 36.6819 26.6703 37.0596C26.7974 37.4374 27.0302 37.7707 27.3411 38.0201C27.652 38.2695 28.0279 38.4245 28.4242 38.4667C28.8205 38.5089 29.2206 38.4364 29.577 38.258L29.692 38.2M52.609 27.784C52.609 32.7285 51.1428 37.562 48.3958 41.6732C45.6487 45.7845 41.7443 48.9888 37.1761 50.881C32.608 52.7732 27.5813 53.2682 22.7318 52.3036C17.8822 51.339 13.4277 48.958 9.93135 45.4617C6.43503 41.9654 4.05402 37.5108 3.08939 32.6613C2.12476 27.8117 2.61984 22.7851 4.51203 18.2169C6.40422 13.6488 9.60853 9.74429 13.7198 6.99725C17.831 4.25022 22.6645 2.784 27.609 2.784C34.2393 2.784 40.598 5.41778 45.2863 10.106C49.9747 14.7942 52.6087 21.1528 52.609 27.783V27.784ZM27.609 17.367H27.63V17.388H27.609V17.367Z" stroke="#CCCCCC" stroke-width="4.167" stroke-linecap="round" stroke-linejoin="round"/>
</svg>
