<svg width="62" height="63" viewBox="0 0 62 63" fill="none" xmlns="http://www.w3.org/2000/svg">
<path d="M47.2024 11.9453C46.4865 11.9453 45.7878 12.157 45.1926 12.5547C44.5974 12.9524 44.1335 13.5183 43.8596 14.1797C43.5857 14.841 43.5138 15.5685 43.6535 16.2705C43.7932 16.9726 44.1375 17.617 44.6438 18.123C45.15 18.6291 45.7952 18.9738 46.4973 19.1133C47.1994 19.2528 47.9268 19.1813 48.5881 18.9072C49.2494 18.6332 49.8146 18.1695 50.2121 17.5742C50.6097 16.9789 50.8217 16.2793 50.8215 15.5635C50.8212 14.6038 50.4406 13.6834 49.7619 13.0049C49.0833 12.3264 48.162 11.9453 47.2024 11.9453Z" fill="black"/>
<path d="M31.1155 16.5879C28.1092 16.5879 25.1708 17.4792 22.6712 19.1494C20.1715 20.8196 18.223 23.1942 17.0725 25.9717C15.9221 28.7491 15.6218 31.8054 16.2083 34.7539C16.7948 37.7024 18.2417 40.4104 20.3674 42.5361C22.4932 44.6619 25.2021 46.1098 28.1507 46.6963C31.0992 47.2828 34.1554 46.9815 36.9329 45.8311C39.7103 44.6806 42.084 42.732 43.7542 40.2324C45.4244 37.7328 46.3157 34.7944 46.3157 31.7881C46.3107 27.7583 44.7081 23.8954 41.8587 21.0459C39.0092 18.1964 35.1452 16.5929 31.1155 16.5879ZM31.1155 41.5264C29.1894 41.5268 27.307 40.9556 25.7053 39.8857C24.1037 38.8159 22.8548 37.295 22.1174 35.5156C21.3801 33.7362 21.1872 31.7788 21.5628 29.8896C21.9384 28.0005 22.8659 26.2644 24.2278 24.9023C25.5897 23.5403 27.325 22.6131 29.2141 22.2373C31.1032 21.8615 33.0616 22.0539 34.8411 22.791C36.6206 23.5282 38.1412 24.7773 39.2112 26.3789C40.2812 27.9805 40.852 29.8629 40.8518 31.7891C40.8489 34.3704 39.8225 36.8455 37.9973 38.6709C36.1721 40.4963 33.6968 41.5232 31.1155 41.5264Z" fill="black"/>
<path d="M43.1826 62.6514H18.54C13.6246 62.6458 8.91127 60.6906 5.43555 57.2148C1.95983 53.7391 0.00555818 49.0267 0 44.1113V19.4648C0.00555818 14.5494 1.95983 9.83705 5.43555 6.36133C8.91127 2.88561 13.6246 0.930363 18.54 0.924805H43.1826C48.0981 0.930362 52.8103 2.88564 56.2861 6.36133C59.762 9.83702 61.7178 14.5493 61.7236 19.4648V44.1113C61.7178 49.0268 59.762 53.7392 56.2861 57.2148C52.8103 60.6905 48.0981 62.6458 43.1826 62.6514ZM18.54 6.73438C15.1643 6.73781 11.9273 8.0801 9.54004 10.4668C7.15278 12.8535 5.8099 16.0892 5.80566 19.4648V44.1113C5.80963 47.4872 7.15275 50.7234 9.54004 53.1104C11.9273 55.4973 15.1642 56.8393 18.54 56.8428H43.1826C46.5585 56.8393 49.7953 55.4973 52.1826 53.1104C54.5699 50.7234 55.913 47.4872 55.917 44.1113V19.4648C55.9128 16.0892 54.5689 12.8535 52.1816 10.4668C49.7944 8.0801 46.5583 6.73781 43.1826 6.73438H18.54Z" fill="black"/>
</svg>
