<svg width="152" height="119" viewBox="0 0 152 119" fill="none" xmlns="http://www.w3.org/2000/svg">
<path fill-rule="evenodd" clip-rule="evenodd" d="M114.478 3.80005C109.104 3.80398 103.797 4.98185 98.9268 7.25146C94.0564 9.52108 89.7412 12.8276 86.2822 16.9395C82.8233 21.0513 80.3046 25.8693 78.9023 31.0564C77.5001 36.2435 77.2479 41.6744 78.1641 46.969C78.369 47.8297 78.3663 48.7267 78.1562 49.5862C77.9462 50.4456 77.5349 51.243 76.9561 51.9121L41.4717 87.396C38.3992 90.4675 36.6728 94.6336 36.6719 98.978V114.365C36.6732 115.451 37.1054 116.491 37.873 117.259C38.6407 118.027 39.6809 118.459 40.7666 118.46H61.2432C62.3288 118.459 63.369 118.027 64.1367 117.259C64.9044 116.491 65.3366 115.451 65.3379 114.365V106.175H73.5283C74.614 106.174 75.6542 105.742 76.4219 104.974C77.1895 104.206 77.6217 103.166 77.623 102.08V93.8899H85.8135C86.352 93.8904 86.8852 93.7848 87.3828 93.5789C87.8804 93.3729 88.3322 93.0709 88.7129 92.6899L103.225 78.178C103.894 77.5993 104.691 77.1881 105.551 76.978C106.41 76.768 107.307 76.7652 108.168 76.97C113.199 77.8441 118.358 77.6631 123.315 76.4385C128.273 75.2138 132.923 72.9723 136.969 69.856C141.015 66.7396 144.368 62.8165 146.817 58.3354C149.267 53.8544 150.758 48.9131 151.197 43.8252C151.636 38.7372 151.014 33.6137 149.368 28.7793C147.722 23.9449 145.09 19.5052 141.638 15.7419C138.185 11.9787 133.988 8.97395 129.313 6.91821C124.639 4.86248 119.588 3.80059 114.481 3.80005H114.478ZM114.478 20.1799C113.391 20.1799 112.35 20.6114 111.582 21.3794C110.814 22.1474 110.383 23.1888 110.383 24.2749C110.383 25.361 110.814 26.4027 111.582 27.1707C112.35 27.9386 113.391 28.3701 114.478 28.3701C117.736 28.3701 120.861 29.6644 123.165 31.9683C125.469 34.2721 126.763 37.3968 126.763 40.655C126.735 41.2098 126.821 41.7645 127.015 42.2852C127.208 42.8059 127.505 43.2817 127.888 43.6841C128.271 44.0864 128.732 44.4068 129.242 44.6257C129.753 44.8446 130.303 44.9575 130.858 44.9575C131.414 44.9575 131.963 44.8446 132.474 44.6257C132.984 44.4068 133.445 44.0864 133.828 43.6841C134.211 43.2817 134.508 42.8059 134.701 42.2852C134.895 41.7645 134.981 41.2098 134.953 40.655C134.954 37.9659 134.424 35.303 133.396 32.8184C132.367 30.3338 130.858 28.076 128.957 26.1743C127.056 24.2726 124.799 22.7641 122.314 21.7349C119.83 20.7056 117.167 20.176 114.478 20.176V20.1799Z" fill="#0F172A"/>
<path d="M44.4863 45.2739L23.5771 66.1841M23.5771 66.1841L2.66699 45.2739M23.5771 66.1841V24.365C23.5581 21.6071 24.0848 18.8726 25.127 16.3191C26.1692 13.7656 27.706 11.4437 29.6494 9.48682C31.5928 7.5299 33.904 5.97658 36.4502 4.91675C38.9964 3.85691 41.7274 3.31152 44.4854 3.31152C47.2433 3.31152 49.9743 3.85691 52.5205 4.91675C55.0667 5.97658 57.3779 7.5299 59.3213 9.48682C61.2647 11.4437 62.8015 13.7656 63.8438 16.3191C64.886 18.8726 65.4126 21.6071 65.3936 24.365V34.8201" stroke="#0F172A" stroke-width="5.227" stroke-linecap="round" stroke-linejoin="round"/>
</svg>
