<svg width="36" height="36" viewBox="0 0 36 36" fill="none" xmlns="http://www.w3.org/2000/svg">
<path d="M17.6396 0.358398C17.9967 0.358398 18.3392 0.499558 18.5918 0.751953C18.8444 1.00435 18.987 1.34703 18.9873 1.7041V5.74219C18.9873 5.91895 18.9524 6.09451 18.8848 6.25781C18.8171 6.42112 18.7178 6.56935 18.5928 6.69434C18.4678 6.81932 18.3196 6.91771 18.1563 6.98535C17.9929 7.05299 17.8174 7.08789 17.6406 7.08789C17.4639 7.08789 17.2893 7.05299 17.126 6.98535C16.9627 6.91771 16.8144 6.81932 16.6895 6.69434C16.5645 6.56935 16.4651 6.42112 16.3975 6.25781C16.3298 6.09451 16.2949 5.91895 16.2949 5.74219V1.70605C16.2947 1.52921 16.329 1.3539 16.3965 1.19043C16.4639 1.02696 16.5636 0.879093 16.6885 0.753906C16.8134 0.62872 16.9617 0.528764 17.125 0.460938C17.2883 0.393111 17.4628 0.35853 17.6396 0.358398Z" fill="white"/>
<path d="M9.56348 17.8585C9.56348 16.261 10.0363 14.6995 10.9238 13.3712C11.8114 12.0429 13.0729 11.0069 14.5488 10.3956C16.0248 9.78433 17.649 9.62491 19.2158 9.93665C20.7826 10.2484 22.222 11.0179 23.3516 12.1476C24.4811 13.2773 25.25 14.7165 25.5615 16.2833C25.8731 17.8502 25.713 19.4745 25.1016 20.9503C24.4901 22.4262 23.4553 23.6869 22.127 24.5743C20.7986 25.4617 19.2362 25.9359 17.6387 25.9357C16.578 25.9357 15.5277 25.7264 14.5479 25.3204C13.568 24.9145 12.6777 24.3195 11.9277 23.5695C11.1778 22.8194 10.5835 21.9293 10.1777 20.9493C9.77194 19.9694 9.56335 18.9192 9.56348 17.8585Z" fill="white"/>
<path d="M30.0136 7.38734C30.2408 7.13064 30.3619 6.79638 30.3515 6.45375C30.341 6.11111 30.2003 5.78501 29.9579 5.54262C29.7155 5.30022 29.3894 5.1595 29.0468 5.14906C28.7041 5.13862 28.3709 5.25977 28.1142 5.48695L25.2577 8.34144C25.0349 8.59889 24.9183 8.93187 24.9306 9.27211C24.9428 9.61234 25.0834 9.93469 25.3241 10.1754C25.5649 10.4162 25.8882 10.5567 26.2284 10.569C26.5687 10.5812 26.9007 10.4646 27.1581 10.2418L30.0136 7.38734Z" fill="white"/>
<path d="M35.1396 17.8584C35.1396 18.2154 34.9985 18.5571 34.7461 18.8096C34.4937 19.062 34.1509 19.2041 33.7939 19.2041H29.7549C29.4044 19.1945 29.0717 19.0491 28.8271 18.7979C28.5826 18.5466 28.4453 18.209 28.4453 17.8584C28.4453 17.5078 28.5826 17.1712 28.8271 16.9199C29.0717 16.6686 29.4044 16.5232 29.7549 16.5137H33.7939C33.9707 16.5135 34.1453 16.5477 34.3086 16.6152C34.4719 16.6828 34.6211 16.7823 34.7461 16.9072C34.8711 17.0321 34.9695 17.1805 35.0371 17.3438C35.1048 17.507 35.1396 17.6817 35.1396 17.8584Z" fill="white"/>
<path d="M28.11 30.2321C28.3667 30.4593 28.7 30.5794 29.0426 30.569C29.3853 30.5585 29.7114 30.4178 29.9538 30.1754C30.1961 29.933 30.3369 29.6079 30.3473 29.2653C30.3577 28.9226 30.2366 28.5884 30.0094 28.3317L27.1549 25.4782C26.8982 25.251 26.564 25.1298 26.2213 25.1403C25.8787 25.1507 25.5536 25.2914 25.3112 25.5338C25.0688 25.7762 24.9281 26.1023 24.9176 26.445C24.9072 26.7876 25.0273 27.1209 25.2545 27.3776L28.11 30.2321Z" fill="white"/>
<path d="M17.6396 28.627C17.9969 28.627 18.3402 28.7689 18.5928 29.0215C18.8454 29.2741 18.9873 29.6174 18.9873 29.9746V34.0137C18.9873 34.3707 18.8452 34.7124 18.5928 34.9648C18.3403 35.2173 17.9976 35.3594 17.6406 35.3594C17.2836 35.3594 16.9419 35.2173 16.6895 34.9648C16.437 34.7124 16.2949 34.3707 16.2949 34.0137V29.9746C16.2949 29.6177 16.4363 29.275 16.6885 29.0225C16.9407 28.7699 17.2827 28.6275 17.6396 28.627Z" fill="white"/>
<path d="M10.0253 27.3766C10.2525 27.1199 10.3726 26.7866 10.3622 26.444C10.3518 26.1013 10.211 25.7752 9.96865 25.5328C9.72626 25.2905 9.40015 25.1497 9.05752 25.1393C8.71488 25.1289 8.3816 25.25 8.1249 25.4772L5.26943 28.3307C5.04666 28.5882 4.93002 28.9202 4.94228 29.2604C4.95455 29.6006 5.0951 29.9239 5.33584 30.1647C5.57658 30.4054 5.8999 30.546 6.24014 30.5582C6.58037 30.5705 6.91237 30.4539 7.16982 30.2311L10.0253 27.3766Z" fill="white"/>
<path d="M6.87109 17.8579C6.87109 18.2149 6.72899 18.5567 6.47656 18.8091C6.22414 19.0615 5.88237 19.2036 5.52539 19.2036H1.48633C1.30655 19.2085 1.12749 19.1773 0.959961 19.1118C0.792432 19.0464 0.639634 18.9482 0.510742 18.8228C0.38185 18.6974 0.278939 18.5471 0.208984 18.3814C0.139029 18.2157 0.103516 18.0378 0.103516 17.8579C0.103516 17.6781 0.139029 17.5002 0.208984 17.3345C0.278939 17.1688 0.38185 17.0195 0.510742 16.8941C0.639634 16.7686 0.792432 16.6694 0.959961 16.604C1.12749 16.5386 1.30655 16.5083 1.48633 16.5132H5.52539C5.8822 16.5132 6.22417 16.6546 6.47656 16.9068C6.72896 17.159 6.87083 17.5011 6.87109 17.8579Z" fill="white"/>
<path d="M8.12074 10.2428C8.37819 10.4656 8.7102 10.5822 9.05043 10.57C9.39067 10.5577 9.71399 10.4171 9.95473 10.1764C10.1955 9.93567 10.336 9.61332 10.3483 9.27308C10.3605 8.93285 10.2439 8.59987 10.0211 8.34242L7.16469 5.48793C6.90799 5.26074 6.57471 5.1396 6.23207 5.15004C5.88944 5.16048 5.56333 5.3012 5.32094 5.54359C5.07855 5.78598 4.93783 6.11209 4.92739 6.45472C4.91694 6.79736 5.03711 7.13162 5.2643 7.38832L8.12074 10.2428Z" fill="white"/>
</svg>
