<svg width="29" height="36" viewBox="0 0 29 36" fill="none" xmlns="http://www.w3.org/2000/svg">
<path fill-rule="evenodd" clip-rule="evenodd" d="M13.7479 35.3866C13.8001 35.4169 13.8412 35.4402 13.8702 35.4566L13.9185 35.4835C14.3037 35.695 14.7816 35.6934 15.1672 35.4842L15.2167 35.4566C15.2458 35.4402 15.2868 35.4169 15.339 35.3866C15.4434 35.3261 15.5926 35.2379 15.7802 35.1224C16.1553 34.8915 16.6847 34.5509 17.3171 34.1042C18.5797 33.2122 20.2644 31.8888 21.9529 30.1601C25.3133 26.7195 28.8038 21.55 28.8038 14.9019C28.8038 7.02614 22.4192 0.641602 14.5435 0.641602C6.66775 0.641602 0.283203 7.02614 0.283203 14.9019C0.283203 21.55 3.77364 26.7195 7.13411 30.1601C8.82252 31.8888 10.5072 33.2122 11.7699 34.1042C12.4023 34.5509 12.9317 34.8915 13.3067 35.1224C13.4943 35.2379 13.6435 35.3261 13.7479 35.3866ZM14.5435 20.0874C17.4074 20.0874 19.729 17.7658 19.729 14.9019C19.729 12.038 17.4074 9.71632 14.5435 9.71632C11.6796 9.71632 9.35793 12.038 9.35793 14.9019C9.35793 17.7658 11.6796 20.0874 14.5435 20.0874Z" fill="#0F172A"/>
</svg>
