<svg width="35" height="36" viewBox="0 0 35 36" fill="none" xmlns="http://www.w3.org/2000/svg">
<path fill-rule="evenodd" clip-rule="evenodd" d="M12.1156 0.641602C12.859 0.641602 13.4617 1.24429 13.4617 1.98774V4.69017C15.049 4.71412 16.6262 4.78035 18.1922 4.8878C19.8245 4.99979 21.4446 5.15657 23.0513 5.35691C23.789 5.44891 24.3125 6.12154 24.2205 6.85928C24.1285 7.59702 23.4559 8.1205 22.7181 8.02851C21.5344 7.8809 20.343 7.75767 19.1445 7.65937C18.0842 11.8051 16.2545 15.6418 13.817 19.009C14.3856 19.6969 14.9835 20.3599 15.6087 20.9961C16.1298 21.5263 16.1224 22.3786 15.5922 22.8997C15.0619 23.4208 14.2096 23.4134 13.6885 22.8832C13.1449 22.33 12.6202 21.7581 12.1155 21.1686C9.29559 24.4629 5.85045 27.2056 1.96426 29.2132C1.30374 29.5544 0.491664 29.2956 0.150441 28.6351C-0.190782 27.9745 0.0680605 27.1625 0.728583 26.8213C4.4651 24.891 7.75787 22.2224 10.4142 19.009C8.85965 16.8616 7.55225 14.523 6.53393 12.0349C6.25232 11.3468 6.58182 10.5608 7.26988 10.2791C7.95794 9.99755 8.744 10.327 9.0256 11.0151C9.8554 13.0426 10.8943 14.9628 12.1155 16.7489C14.0269 13.9536 15.4917 10.8293 16.4074 7.479C14.9858 7.40816 13.5549 7.37231 12.1156 7.37231C8.52429 7.37231 4.98578 7.59546 1.51299 8.02851C0.775254 8.1205 0.102621 7.59702 0.0106262 6.85928C-0.0813686 6.12154 0.442111 5.44891 1.17985 5.35691C4.32793 4.96435 7.52753 4.73908 10.7694 4.69017V1.98774C10.7694 1.24429 11.3721 0.641602 12.1156 0.641602ZM24.2308 12.7569C24.7538 12.7569 25.2295 13.0598 25.4507 13.5338L34.8737 33.7259C35.1881 34.3996 34.8968 35.2006 34.2231 35.515C33.5494 35.8294 32.7484 35.5381 32.434 34.8644L30.2837 30.2567H18.1779L16.0277 34.8644C15.7133 35.5381 14.9123 35.8294 14.2386 35.515C13.5649 35.2006 13.2736 34.3996 13.588 33.7259L23.011 13.5338C23.2321 13.0598 23.7078 12.7569 24.2308 12.7569ZM19.4343 27.5644H29.0273L24.2308 17.2862L19.4343 27.5644Z" fill="#0F172A"/>
</svg>
