<svg width="116" height="126" viewBox="0 0 116 126" fill="none" xmlns="http://www.w3.org/2000/svg">
<path d="M72.375 43.6162V19.6582C72.375 15.8457 70.8604 12.1894 68.1646 9.49353C65.4687 6.79769 61.8125 5.2832 58 5.2832H19.667C15.8545 5.2832 12.1983 6.79769 9.50244 9.49353C6.80661 12.1894 5.29199 15.8457 5.29199 19.6582V105.908C5.29226 109.721 6.80666 113.377 9.50244 116.073C12.1982 118.768 15.8546 120.283 19.667 120.283H58C61.8124 120.283 65.4688 118.768 68.1646 116.073C70.8603 113.377 72.3747 109.721 72.375 105.908V81.9492M29.25 62.7832L48.417 81.9492M48.417 43.6162L29.25 62.7832M110.708 62.7832H29.25" stroke="black" stroke-width="9.583" stroke-linecap="round" stroke-linejoin="round"/>
</svg>
