<svg width="28" height="36" viewBox="0 0 28 36" fill="none" xmlns="http://www.w3.org/2000/svg">
<path fill-rule="evenodd" clip-rule="evenodd" d="M13.75 0.641602C8.91751 0.641602 5 4.55911 5 9.3916V14.3916C2.23858 14.3916 0 16.6302 0 19.3916V30.6416C0 33.403 2.23858 35.6416 5 35.6416H22.5C25.2614 35.6416 27.5 33.403 27.5 30.6416V19.3916C27.5 16.6302 25.2614 14.3916 22.5 14.3916V9.3916C22.5 4.55911 18.5825 0.641602 13.75 0.641602ZM20 14.3916V9.3916C20 5.93982 17.2018 3.1416 13.75 3.1416C10.2982 3.1416 7.5 5.93982 7.5 9.3916V14.3916H20Z" fill="#0F172A"/>
</svg>
