<svg width="39" height="39" viewBox="0 0 39 39" fill="none" xmlns="http://www.w3.org/2000/svg">
<path d="M35.5894 1.9613C35.8236 1.95093 36.057 2.00089 36.2661 2.10681C36.4752 2.21273 36.6535 2.37086 36.7837 2.56579C36.9139 2.76073 36.9916 2.98537 37.0093 3.21911C37.027 3.45285 36.9836 3.68743 36.8843 3.89978C36.5843 4.65078 36.2193 5.37955 35.8843 6.11755L26.2632 27.1019C24.8992 30.0773 23.5341 33.053 22.1695 36.0297C22.055 36.3418 21.8342 36.6042 21.5454 36.7689C21.2566 36.9336 20.9183 36.9905 20.5913 36.93C20.2833 36.8807 20.0026 36.7244 19.7984 36.4886C19.5941 36.2529 19.4801 35.9529 19.4751 35.641C19.3211 34.069 19.197 32.4953 19.063 30.9213C18.9037 29.0546 18.7444 27.1873 18.5864 25.3207C18.4684 23.9287 18.3457 22.5379 18.2417 21.1429C18.2207 20.8499 18.1307 20.7353 17.8237 20.7113C15.5237 20.5293 13.2242 20.3321 10.9302 20.1361C8.75753 19.9514 6.58461 19.7636 4.41261 19.5736C4.05061 19.5436 3.68768 19.5199 3.32668 19.4789C3.00868 19.4726 2.70352 19.3546 2.46437 19.1449C2.22523 18.9352 2.06784 18.6478 2.02004 18.3334C1.96489 18.0121 2.02433 17.6811 2.18898 17.3998C2.35363 17.1184 2.61232 16.9046 2.91945 16.7953C4.55878 16.0406 6.1984 15.2862 7.8384 14.5336C12.4051 12.4396 16.9719 10.3479 21.5386 8.2572C25.9773 6.2232 30.4157 4.18742 34.853 2.15075C35.0792 2.02727 35.3318 1.96252 35.5894 1.9613Z" fill="#090909" stroke="#090909" stroke-width="3" stroke-miterlimit="10"/>
</svg>
