<svg width="43" height="55" viewBox="0 0 43 55" fill="none" xmlns="http://www.w3.org/2000/svg">
<path d="M31.1751 11.493C31.1753 13.4369 30.5989 15.3371 29.5191 16.9535C28.4393 18.5699 26.9043 19.8297 25.1085 20.5737C23.3126 21.3177 21.3365 21.5124 19.43 21.1332C17.5235 20.754 15.7721 19.818 14.3975 18.4434C13.023 17.0689 12.087 15.3177 11.7078 13.4111C11.3286 11.5046 11.5234 9.52842 12.2674 7.73254C13.0114 5.93667 14.2712 4.40174 15.8875 3.3219C17.5039 2.24206 19.4041 1.66582 21.348 1.66602C23.9542 1.66628 26.4536 2.70169 28.2964 4.54456C30.1393 6.38742 31.1748 8.88678 31.1751 11.493V11.493Z" stroke="#B0AFB2" stroke-width="3" stroke-linecap="round" stroke-linejoin="round"/>
<path d="M1.69995 48.493C1.81579 43.3582 3.93691 38.4728 7.60938 34.8823C11.2818 31.2917 16.214 29.2813 21.3501 29.2813C26.4862 29.2813 31.4181 31.2917 35.0906 34.8823C38.763 38.4728 40.8842 43.3582 41 48.493C34.8321 51.3099 28.1308 52.7678 21.3501 52.7678C14.5694 52.7678 7.86783 51.3099 1.69995 48.493V48.493Z" stroke="#B0AFB2" stroke-width="3" stroke-linecap="round" stroke-linejoin="round"/>
</svg>
