<svg width="50" height="38" viewBox="0 0 50 38" fill="none" xmlns="http://www.w3.org/2000/svg">
<path d="M2.38987 19.318C2.23397 18.8479 2.23397 18.3401 2.38987 17.87C3.96917 13.1297 6.99982 9.00639 11.0525 6.08399C15.1051 3.16158 19.9745 1.58822 24.9709 1.58667C29.9674 1.58512 34.8376 3.15543 38.8921 6.07532C42.9465 8.99521 45.9798 13.1167 47.562 17.856C47.7181 18.3263 47.7181 18.8347 47.562 19.3051C45.9823 24.0452 42.9514 28.1682 38.8987 31.0903C34.8459 34.0125 29.9766 35.5857 24.9802 35.5872C19.9838 35.5886 15.1135 34.0182 11.0591 31.0984C7.0046 28.1785 3.9713 24.0572 2.3889 19.318H2.38987Z" stroke="#B0AFB2" stroke-width="3" stroke-linecap="round" stroke-linejoin="round"/>
<path d="M31.7771 18.587C31.7771 19.9319 31.3783 21.2466 30.6312 22.3649C29.884 23.4831 28.8219 24.3547 27.5794 24.8694C26.3369 25.3841 24.9695 25.5187 23.6504 25.2563C22.3314 24.994 21.1197 24.3464 20.1687 23.3954C19.2178 22.4444 18.57 21.2326 18.3077 19.9136C18.0453 18.5945 18.18 17.2273 18.6946 15.9847C19.2093 14.7422 20.081 13.6802 21.1993 12.933C22.3175 12.1858 23.6322 11.787 24.9771 11.787C26.7806 11.787 28.5102 12.5034 29.7854 13.7787C31.0607 15.0539 31.7771 16.7836 31.7771 18.587V18.587Z" stroke="#B0AFB2" stroke-width="3" stroke-linecap="round" stroke-linejoin="round"/>
</svg>
