<svg width="50" height="47" viewBox="0 0 50 47" fill="none" xmlns="http://www.w3.org/2000/svg">
<path fill-rule="evenodd" clip-rule="evenodd" d="M4.80769 0C2.15248 0 0 2.15248 0 4.80769V38.4615C0 42.7099 3.44396 46.1538 7.69231 46.1538H46.1538C41.9055 46.1538 38.4615 42.7099 38.4615 38.4615V4.80769C38.4615 2.15248 36.3091 0 33.6538 0H4.80769ZM25 17.3077C23.9379 17.3077 23.0769 18.1687 23.0769 19.2308C23.0769 20.2929 23.9379 21.1538 25 21.1538H28.8462C29.9082 21.1538 30.7692 20.2929 30.7692 19.2308C30.7692 18.1687 29.9082 17.3077 28.8462 17.3077H25ZM23.0769 11.5385C23.0769 10.4764 23.9379 9.61539 25 9.61539H28.8462C29.9082 9.61539 30.7692 10.4764 30.7692 11.5385C30.7692 12.6005 29.9082 13.4615 28.8462 13.4615H25C23.9379 13.4615 23.0769 12.6005 23.0769 11.5385ZM9.61538 25C8.5533 25 7.69231 25.861 7.69231 26.9231C7.69231 27.9852 8.5533 28.8462 9.61538 28.8462H28.8462C29.9082 28.8462 30.7692 27.9852 30.7692 26.9231C30.7692 25.861 29.9082 25 28.8462 25H9.61538ZM7.69231 34.6154C7.69231 33.5533 8.5533 32.6923 9.61538 32.6923H28.8462C29.9082 32.6923 30.7692 33.5533 30.7692 34.6154C30.7692 35.6775 29.9082 36.5385 28.8462 36.5385H9.61538C8.5533 36.5385 7.69231 35.6775 7.69231 34.6154ZM9.61538 9.61539C8.5533 9.61539 7.69231 10.4764 7.69231 11.5385V19.2308C7.69231 20.2929 8.5533 21.1538 9.61538 21.1538H17.3077C18.3698 21.1538 19.2308 20.2929 19.2308 19.2308V11.5385C19.2308 10.4764 18.3698 9.61539 17.3077 9.61539H9.61538Z" fill="#0F172A"/>
<path d="M42.3077 9.61539H47.1154C48.7085 9.61539 50 10.9069 50 12.5V38.4615C50 40.5857 48.278 42.3077 46.1538 42.3077C44.0297 42.3077 42.3077 40.5857 42.3077 38.4615V9.61539Z" fill="#0F172A"/>
</svg>
