<svg width="47" height="56" viewBox="0 0 47 56" fill="none" xmlns="http://www.w3.org/2000/svg">
<path d="M45 52.595V35.226C44.9999 34.7543 44.8465 34.2954 44.5627 33.9186C44.279 33.5417 43.8803 33.2674 43.427 33.137L32.7791 30.077" stroke="#B0AFB2" stroke-width="3.026" stroke-linecap="round" stroke-linejoin="round"/>
<path d="M39.176 52.594V31.915" stroke="#B0AFB2" stroke-width="3.026" stroke-linecap="round" stroke-linejoin="round"/>
<path d="M23.439 2.19299V7.45899" stroke="#B0AFB2" stroke-width="3.026" stroke-linecap="round" stroke-linejoin="round"/>
<path d="M14.292 53.546V23C14.292 22.5226 14.4816 22.0648 14.8192 21.7272C15.1568 21.3897 15.6147 21.2 16.092 21.2H30.792C31.2694 21.2 31.7273 21.3897 32.0648 21.7272C32.4024 22.0648 32.592 22.5226 32.592 23V53.549" stroke="#B0AFB2" stroke-width="3.026" stroke-linecap="round" stroke-linejoin="round"/>
<path d="M23.439 53.546V21.201" stroke="#B0AFB2" stroke-width="3.026" stroke-linecap="round" stroke-linejoin="round"/>
<path d="M23.439 7.45898C25.2051 7.45898 26.8988 8.16056 28.1477 9.40936C29.3965 10.6582 30.098 12.3519 30.098 14.118V21.2H16.78V14.118C16.78 12.3519 17.4816 10.6582 18.7304 9.40936C19.9792 8.16056 21.673 7.45898 23.439 7.45898V7.45898Z" fill="#B0AFB2"/>
<path d="M23.439 17.415C25.2174 17.415 26.659 15.9733 26.659 14.195C26.659 12.4166 25.2174 10.975 23.439 10.975C21.6606 10.975 20.219 12.4166 20.219 14.195C20.219 15.9733 21.6606 17.415 23.439 17.415Z" fill="white"/>
<path d="M2.04297 52.595V35.226C2.04309 34.7542 2.19677 34.2952 2.48071 33.9183C2.76466 33.5415 3.16342 33.2672 3.61694 33.137L14.264 30.077" stroke="#B0AFB2" stroke-width="3.026" stroke-linecap="round" stroke-linejoin="round"/>
<path d="M7.86804 52.594V31.915" stroke="#B0AFB2" stroke-width="3.026" stroke-linecap="round" stroke-linejoin="round"/>
</svg>
