<svg width="50" height="51" viewBox="0 0 50 51" fill="none" xmlns="http://www.w3.org/2000/svg">
<path d="M47.5538 26.0613L46.4483 25.2857C45.2794 24.4695 44.4554 23.2334 44.1413 21.8247C43.8272 20.416 44.0463 18.9382 44.7542 17.6869L45.417 16.5095C45.9801 15.5105 46.2353 14.3615 46.1493 13.2125C46.0634 12.0635 45.64 10.9673 44.9347 10.0669C44.2295 9.16662 43.2751 8.50419 42.1953 8.16484C41.1155 7.82549 39.9603 7.8255 38.8805 8.16484L37.6114 8.55696C36.2581 8.98302 34.7965 8.87241 33.5201 8.24633C32.2437 7.62026 31.2464 6.52547 30.728 5.1813L30.2373 3.91484C29.822 2.84393 29.1001 1.92488 28.1663 1.2774C27.2324 0.629911 26.1293 0.283203 25 0.283203C23.8708 0.283203 22.7676 0.629911 21.8338 1.2774C20.8999 1.92488 20.179 2.84393 19.7637 3.91484L19.2711 5.1813C18.7528 6.5254 17.7562 7.62025 16.4799 8.24633C15.2037 8.87242 13.7428 8.98297 12.3896 8.55696L11.1186 8.16484C10.0388 7.8255 8.88362 7.82549 7.8038 8.16484C6.72398 8.50419 5.76959 9.16662 5.06436 10.0669C4.35913 10.9673 3.93575 12.0635 3.84976 13.2125C3.76377 14.3615 4.01901 15.5105 4.58209 16.5095L5.24674 17.6869C5.95413 18.9384 6.17206 20.4161 5.8578 21.8247C5.54354 23.2333 4.71954 24.4694 3.55081 25.2857L2.44526 26.0613C1.51451 26.7121 0.79733 27.6335 0.386449 28.7054C-0.0244317 29.7773 -0.110095 30.9504 0.141084 32.0724C0.392263 33.1945 0.968399 34.2137 1.79471 34.9975C2.62102 35.7813 3.65933 36.2928 4.77481 36.4672L6.10317 36.6753C7.50327 36.8934 8.77123 37.6416 9.65297 38.772C10.5347 39.9024 10.9656 41.3314 10.8591 42.7718L10.7623 44.1264C10.6805 45.2749 10.9393 46.4212 11.505 47.4177C12.0706 48.4143 12.9169 49.2152 13.9342 49.7148C14.9514 50.2145 16.0927 50.3903 17.2095 50.2201C18.3262 50.0498 19.3666 49.5411 20.1961 48.7599L21.1795 47.8367C22.2202 46.8572 23.5847 46.3133 25.001 46.3133C26.4172 46.3133 27.7808 46.8572 28.8215 47.8367L29.8048 48.7599C30.6344 49.5411 31.6748 50.0498 32.7915 50.2201C33.9082 50.3903 35.0495 50.2145 36.0668 49.7148C37.0841 49.2152 37.9304 48.4143 38.496 47.4177C39.0617 46.4212 39.3205 45.2749 39.2387 44.1264L39.1428 42.7718C39.0361 41.3315 39.4664 39.9033 40.348 38.7729C41.2296 37.6425 42.4968 36.8934 43.8969 36.6753L45.2252 36.4672C46.3406 36.2927 47.3791 35.7804 48.2053 34.9965C49.0315 34.2127 49.6079 33.1935 49.859 32.0715C50.11 30.9495 50.0245 29.7772 49.6136 28.7054C49.2027 27.6336 48.4846 26.712 47.5538 26.0613ZM24.9991 32.1578C23.6663 32.1578 22.3638 31.7548 21.2556 30.9996C20.1475 30.2445 19.2838 29.1712 18.7738 27.9154C18.2637 26.6597 18.1302 25.2784 18.3902 23.9454C18.6502 22.6123 19.2923 21.388 20.2347 20.4269C21.1771 19.4658 22.3777 18.811 23.6848 18.5459C24.992 18.2807 26.3464 18.4169 27.5778 18.937C28.8091 19.4572 29.8616 20.3379 30.602 21.468C31.3425 22.5982 31.7377 23.9265 31.7377 25.2857C31.7383 26.1883 31.5647 27.0823 31.2263 27.9164C30.8878 28.7505 30.3912 29.5081 29.7654 30.1464C29.1395 30.7846 28.3966 31.2911 27.5787 31.6362C26.7608 31.9814 25.8842 32.1584 24.9991 32.1578Z" fill="#090909"/>
</svg>
