<svg width="27" height="27" viewBox="0 0 27 27" fill="none" xmlns="http://www.w3.org/2000/svg">
<path d="M25.8461 25.1181L18.9169 18.189M18.9169 18.189C20.5528 16.553 21.571 14.4005 21.7977 12.098C22.0245 9.79563 21.4459 7.48592 20.1605 5.56228C18.8751 3.63864 16.9623 2.22017 14.7484 1.54861C12.5345 0.877043 10.1563 0.993912 8.0189 1.8793C5.88147 2.76468 4.1168 4.36381 3.02623 6.4042C1.93565 8.44458 1.58656 10.7999 2.03795 13.069C2.48933 15.3381 3.71339 17.3805 5.50181 18.8482C7.29023 20.3158 9.5325 21.1181 11.8461 21.1181C13.1595 21.1196 14.4602 20.8616 15.6737 20.3589C16.8871 19.8563 17.9892 19.1188 18.9169 18.189Z" stroke="#B2B2B2" stroke-width="2.195" stroke-linecap="round" stroke-linejoin="round"/>
</svg>
