<svg width="62" height="52" viewBox="0 0 62 52" fill="none" xmlns="http://www.w3.org/2000/svg">
<path d="M61.3556 6.93329C59.3865 7.77859 57.3172 8.36827 55.1983 8.68817C56.1883 8.52217 57.6427 6.72958 58.2257 6.00458C59.1373 4.90315 59.8309 3.63778 60.2696 2.27704C60.3226 2.17204 60.362 2.0377 60.256 1.9577C60.2035 1.93548 60.1458 1.92566 60.089 1.93036C60.0322 1.93506 59.9779 1.95352 59.9298 1.98407C57.6222 3.21534 55.1701 4.15357 52.63 4.77704C52.5426 4.80397 52.4489 4.80642 52.3605 4.7829C52.272 4.75938 52.1925 4.71103 52.13 4.64423C51.9336 4.41086 51.719 4.19254 51.4894 3.99188C50.4353 3.08358 49.2411 2.35179 47.9532 1.82489C46.2344 1.12909 44.3808 0.830303 42.5304 0.950869C40.7327 1.07277 38.9806 1.56806 37.3849 2.40497C35.7845 3.24055 34.3716 4.39511 33.2335 5.79657C32.0522 7.24922 31.2063 8.94431 30.755 10.7614C30.3672 12.4831 30.3215 14.2646 30.6222 16.0036C30.6612 16.2966 30.6362 16.3366 30.3702 16.2966C20.3452 14.8046 12.0332 11.216 5.28624 3.52704C4.99324 3.19404 4.83678 3.19441 4.59678 3.55341C1.64378 7.97841 3.07575 15.0877 6.76475 18.5817C7.25575 19.0477 7.76477 19.5132 8.30577 19.9372C6.61854 19.8103 4.9735 19.3499 3.46592 18.5817C3.17292 18.3957 3.02515 18.5036 2.99815 18.8356C2.98009 19.3161 3.00695 19.7967 3.07823 20.2722C3.37402 22.5299 4.26446 24.6691 5.65733 26.4704C7.0502 28.2717 8.89628 29.6707 11.0069 30.5251C11.5224 30.749 12.0609 30.9143 12.6134 31.0173C11.0502 31.3298 9.44575 31.3796 7.86631 31.1638C7.52031 31.0988 7.38861 31.2692 7.52061 31.6022C9.60961 37.2952 14.1202 38.9898 17.4942 39.9548C17.9472 40.0338 18.3996 40.0333 18.8526 40.1403C18.8256 40.1813 18.7986 40.1814 18.7726 40.2214C17.6526 41.9284 13.773 43.1998 11.961 43.8308C8.64816 45.0128 5.11815 45.4637 1.61436 45.154C1.05836 45.072 0.940142 45.079 0.790142 45.154C0.638142 45.248 0.770321 45.3821 0.949321 45.5251C1.65532 45.9911 2.37259 46.4044 3.10459 46.8034C5.3018 47.9749 7.62064 48.902 10.0196 49.569C22.4476 53.002 36.4474 50.4797 45.7784 41.2097C53.1074 33.9287 55.6788 23.8877 55.6788 13.8347C55.6788 13.4397 56.144 13.2233 56.42 13.0153C58.2799 11.5743 59.9182 9.86843 61.2843 7.95282C61.4996 7.67624 61.6138 7.3345 61.6075 6.98407V6.93329C61.6055 6.76729 61.6026 6.81529 61.3556 6.93329Z" fill="black"/>
</svg>
