<svg width="37" height="36" viewBox="0 0 37 36" fill="none" xmlns="http://www.w3.org/2000/svg">
<path fill-rule="evenodd" clip-rule="evenodd" d="M33.3332 0.641602C32.7076 0.641602 32.0959 0.826791 31.5754 1.17383L23.1104 6.81717C20.7832 8.36863 18.6832 10.2198 16.8608 12.316C20.3855 13.9167 23.227 16.7584 24.8276 20.2831C26.9239 18.4608 28.7751 16.3607 30.3266 14.0334L35.97 5.56843C36.317 5.04787 36.5022 4.43623 36.5022 3.81059C36.5022 2.06041 35.0834 0.641602 33.3332 0.641602ZM19.5014 24.0165C20.7988 23.2957 22.0393 22.4856 23.2147 21.5937C21.7947 18.1228 19.0211 15.3491 15.5502 13.9289C14.6583 15.1043 13.8481 16.3449 13.1273 17.6424L12.6631 18.478C15.5572 19.3058 17.838 21.5865 18.6658 24.4807L19.5014 24.0165ZM10.2514 20.6416C6.79959 20.6416 4.0014 23.4398 4.0014 26.8916C4.0014 28.2723 2.88212 29.3916 1.50139 29.3916C1.44479 29.3916 1.38844 29.3897 1.33247 29.386C0.872212 29.3556 0.432602 29.5811 0.188829 29.9727C-0.0549446 30.3642 -0.0632588 30.8582 0.1672 31.2578C1.67687 33.8752 4.50709 35.6416 7.75141 35.6416C12.5839 35.6416 16.5014 31.7241 16.5014 26.8916C16.5014 23.4398 13.7032 20.6416 10.2514 20.6416Z" fill="#0F172A"/>
</svg>
