<svg width="54" height="61" viewBox="0 0 54 61" fill="none" xmlns="http://www.w3.org/2000/svg">
<g filter="url(#filter0_d_170_142)">
<path d="M45.4449 0.00341797H44.1592C44.1592 15.6854 44.1592 31.3672 44.1592 47.0481C44.6246 46.5924 45.0557 46.1078 45.4484 45.5975L45.4449 0.00341797Z" fill="#090909"/>
<path d="M43.4287 0.00341797H42.0049V48.78C42.5024 48.4498 42.978 48.0923 43.4287 47.7095V0.00341797Z" fill="#090909"/>
<path d="M37.1525 0.00341797H35.8457V51.4013C36.2921 51.2909 36.7255 51.1681 37.1472 51.0334C37.1484 34.0206 37.1507 17.0107 37.1525 0.00341797Z" fill="#090909"/>
<path d="M39.2773 0.00341797H37.9326C37.9326 16.9274 37.9326 33.8513 37.9326 50.7747C38.397 50.6091 38.8475 50.4335 39.2843 50.2475L39.2773 0.00341797Z" fill="#090909"/>
<path d="M23.7097 40.2916C23.2728 40.1773 22.8486 40.025 22.4434 39.8364V52.2452C22.8579 52.2825 23.2807 52.3126 23.7097 52.3374V40.2916Z" fill="#090909"/>
<path d="M26.8727 40.6322C26.7988 40.6322 26.7266 40.6322 26.6518 40.6322C25.919 40.6364 25.1875 40.5772 24.4668 40.4551C24.4668 44.4293 24.4668 48.403 24.4668 52.3771C25.1504 52.4053 25.8512 52.4203 26.5691 52.4208H26.8736L26.8727 40.6322Z" fill="#090909"/>
<path d="M47.2012 42.6682C48.5228 39.5343 49.1534 36.1903 49.0553 32.8305V0.00341797H47.2012V42.6682Z" fill="#090909"/>
<path d="M20.6258 38.5128C19.4801 37.2549 18.9077 35.4363 18.9071 33.0567V0H4V32.8271C4 39.5104 5.85909 44.4459 9.57829 47.6341C12.2546 49.9281 15.937 51.3971 20.6258 52.0407V38.5128Z" fill="#090909"/>
<path d="M29.6377 52.3255C30.4841 52.2703 31.3032 52.1939 32.0938 52.0967V38.8228C31.4202 39.4793 30.5743 39.9665 29.6377 40.2377V52.3255Z" fill="#090909"/>
</g>
<defs>
<filter id="filter0_d_170_142" x="0" y="0" width="53.0654" height="60.4209" filterUnits="userSpaceOnUse" color-interpolation-filters="sRGB">
<feFlood flood-opacity="0" result="BackgroundImageFix"/>
<feColorMatrix in="SourceAlpha" type="matrix" values="0 0 0 0 0 0 0 0 0 0 0 0 0 0 0 0 0 0 127 0" result="hardAlpha"/>
<feOffset dy="4"/>
<feGaussianBlur stdDeviation="2"/>
<feComposite in2="hardAlpha" operator="out"/>
<feColorMatrix type="matrix" values="0 0 0 0 0 0 0 0 0 0 0 0 0 0 0 0 0 0 0.25 0"/>
<feBlend mode="normal" in2="BackgroundImageFix" result="effect1_dropShadow_170_142"/>
<feBlend mode="normal" in="SourceGraphic" in2="effect1_dropShadow_170_142" result="shape"/>
</filter>
</defs>
</svg>
