<svg width="44" height="56" viewBox="0 0 44 56" fill="none" xmlns="http://www.w3.org/2000/svg">
<path d="M32.1511 11.8348C32.1509 13.7784 31.5743 15.6782 30.4944 17.2941C29.4144 18.9101 27.8799 20.1694 26.0842 20.9131C24.2885 21.6567 22.3127 21.8512 20.4065 21.4719C18.5003 21.0926 16.7495 20.1566 15.3752 18.7822C14.001 17.4078 13.0649 15.6568 12.6858 13.7506C12.3067 11.8444 12.5015 9.86856 13.2453 8.07297C13.9892 6.27738 15.249 4.74268 16.865 3.66292C18.481 2.58316 20.3809 2.00684 22.3244 2.00684C23.615 2.00684 24.8929 2.26104 26.0852 2.75496C27.2775 3.24887 28.3606 3.97283 29.2732 4.88545C30.1857 5.79808 30.9098 6.88152 31.4035 8.0739C31.8973 9.26628 32.1512 10.5443 32.1511 11.8348Z" stroke="white" stroke-width="4" stroke-linecap="round" stroke-linejoin="round"/>
<path d="M2.6709 48.8339C2.76806 43.686 4.88117 38.7817 8.55615 35.1754C12.2311 31.5691 17.1749 29.5488 22.3237 29.5488C27.4726 29.5488 32.4158 31.5691 36.0908 35.1754C39.7658 38.7817 41.8789 43.686 41.9761 48.8339C35.8076 51.6519 29.1054 53.1104 22.3237 53.1104C15.5421 53.1104 8.83937 51.6519 2.6709 48.8339V48.8339Z" stroke="white" stroke-width="4" stroke-linecap="round" stroke-linejoin="round"/>
</svg>
