<svg width="43" height="55" viewBox="0 0 43 55" fill="none" xmlns="http://www.w3.org/2000/svg">
<path d="M31.6238 11.806C31.624 13.7498 31.0477 15.6501 29.9678 17.2665C28.888 18.8828 27.3531 20.1427 25.5572 20.8867C23.7613 21.6306 21.7853 21.8254 19.8787 21.4462C17.9722 21.067 16.2208 20.1309 14.8463 18.7564C13.4717 17.3819 12.5357 15.6307 12.1566 13.7241C11.7774 11.8176 11.9721 9.84141 12.7161 8.04553C13.4601 6.24966 14.7199 4.71473 16.3362 3.63489C17.9526 2.55505 19.8528 1.97881 21.7967 1.979C24.4029 1.97927 26.9023 3.01468 28.7452 4.85754C30.588 6.70041 31.6236 9.19977 31.6238 11.806V11.806Z" stroke="#B0AFB2" stroke-width="3" stroke-linecap="round" stroke-linejoin="round"/>
<path d="M2.14844 48.8059C2.26428 43.6712 4.38539 38.7857 8.05786 35.1952C11.7303 31.6046 16.6625 29.5942 21.7986 29.5942C26.9346 29.5942 31.8666 31.6046 35.5391 35.1952C39.2115 38.7857 41.3326 43.6712 41.4485 48.8059C35.2806 51.6228 28.5793 53.0807 21.7986 53.0807C15.0179 53.0807 8.31631 51.6228 2.14844 48.8059V48.8059Z" stroke="#B0AFB2" stroke-width="3" stroke-linecap="round" stroke-linejoin="round"/>
</svg>
