<svg width="101" height="101" viewBox="0 0 101 101" fill="none" xmlns="http://www.w3.org/2000/svg">
<path d="M0 100.882L7.18652 74.1328C1.37998 63.6857 -0.462445 51.495 1.99609 39.7983C4.45463 28.1016 11.0492 17.6842 20.5703 10.4589C30.0914 3.23364 41.8994 -0.314767 53.8262 0.465291C65.753 1.24535 76.9982 6.30164 85.4971 14.7055C93.996 23.1094 99.1787 34.2971 100.093 46.2143C101.007 58.1316 97.5914 69.9783 90.4736 79.58C83.3558 89.1818 73.013 95.894 61.3447 98.4838C49.6764 101.074 37.4658 99.3679 26.9541 93.6792L0 100.882ZM28.293 83.6547L29.9932 84.665C38.426 89.6741 48.4005 91.4248 58.0352 89.5869C67.6698 87.749 76.2991 82.4496 82.2959 74.688C88.2926 66.9263 91.2423 57.2387 90.5889 47.4521C89.9354 37.6655 85.7235 28.456 78.748 21.5605C71.7726 14.665 62.5152 10.5601 52.7217 10.0195C42.9282 9.47888 33.275 12.5401 25.583 18.6259C17.891 24.7118 12.6915 33.4014 10.9648 43.0566C9.23817 52.7118 11.1039 62.6654 16.21 71.04L17.252 72.7461L13.2393 87.6801L28.293 83.6547Z" fill="#090909"/>
<path fill-rule="evenodd" clip-rule="evenodd" d="M68.9058 57.142C66.8678 55.926 64.217 54.5688 61.816 55.5478C59.973 56.2998 58.797 59.1759 57.605 60.6479C57.3502 60.9946 56.9776 61.2365 56.5572 61.3286C56.1368 61.4206 55.6973 61.3564 55.3209 61.1479C48.5884 58.5161 42.9409 53.6892 39.2935 47.4482C38.9851 47.0547 38.8392 46.5578 38.8853 46.06C38.9314 45.5622 39.1661 45.101 39.5416 44.7709C40.6946 43.4169 42.1417 41.8801 42.4537 40.0551C42.7657 38.2301 41.9079 36.0981 41.1539 34.4741C40.1869 32.3981 39.108 29.4381 37.024 28.2641C35.105 27.1841 32.5826 27.7887 30.8756 29.1757C29.4617 30.3901 28.339 31.9073 27.5904 33.6142C26.8418 35.3211 26.4861 37.1743 26.5504 39.0371C26.5618 40.0914 26.6933 41.141 26.941 42.166C27.6009 44.6066 28.6148 46.9374 29.9507 49.0839C30.9138 50.7264 31.9619 52.3173 33.0914 53.85C36.7773 58.8961 41.4042 63.1818 46.7173 66.4711C49.388 68.134 52.2398 69.4862 55.2173 70.5019C58.5463 71.6019 61.518 72.741 65.109 72.06C68.875 71.348 72.5857 69.0227 74.0797 65.4047C74.5588 64.3395 74.7036 63.154 74.4947 62.0048C73.9777 59.6638 70.7998 58.273 68.9058 57.142Z" fill="#090909"/>
</svg>
