<svg width="24" height="24" viewBox="0 0 24 24" fill="none" xmlns="http://www.w3.org/2000/svg">
<path d="M3.37494 2.72079C4.24711 1.86333 5.4505 1.17237 6.86272 0.71795C8.34661 0.235585 9.98323 -0.0107035 11.6399 0.000356719C12.827 -0.0044151 14.0097 0.101514 15.1512 0.314973C16.1184 0.487083 17.0385 0.756044 17.8803 1.11222L17.7586 4.63593C16.9134 4.44372 16.0483 4.29178 15.1696 4.18141C14.2095 4.05573 13.2325 3.99232 12.2534 3.99264C11.3656 3.98471 10.4816 4.07086 9.63577 4.24768C8.93718 4.38574 8.30158 4.63386 7.78401 4.97063C7.35409 5.27014 7.10951 5.6642 7.0979 6.07513C7.08629 6.48607 7.3079 6.88464 7.72061 7.19436C8.18966 7.51005 8.78133 7.73675 9.43127 7.85037C10.2262 8.00042 11.0498 8.07535 11.8771 8.07261C12.8304 8.07392 13.7808 8.00508 14.7105 7.86711L20.4171 7.11738V10.8807L16.0203 11.5508C13.1198 11.9042 10.3335 12.5816 7.78401 13.5536C6.99893 13.8327 6.33752 14.2405 5.86578 14.7371C5.39404 15.2338 5.12784 15.8021 5.09276 16.3865C5.08408 16.7134 5.17651 17.0383 5.36475 17.3411C5.55298 17.6439 5.83301 17.9184 6.18787 18.1484C7.09722 18.699 8.2125 19.0826 9.42104 19.2602C11.1439 19.5377 12.9152 19.6658 14.689 19.6418C15.7137 19.6418 16.7777 19.6107 17.8813 19.5481C18.9849 19.4855 20.0675 19.3985 21.1278 19.287C22.1839 19.176 23.1407 19.0481 24 18.9041V22.9627C23.233 23.1375 22.452 23.2838 21.6595 23.3998C20.7925 23.5282 19.8845 23.6373 18.9365 23.7278C17.9886 23.8183 17.0578 23.885 16.1441 23.9279C15.2296 23.9736 14.3783 23.9969 13.5888 23.9969C11.1275 24.0342 8.68101 23.7354 6.40566 23.12C4.50124 22.6029 2.86175 21.7412 1.6786 20.6358C0.540533 19.5187 -0.0450183 18.1995 0.00270123 16.8571C0.0185026 15.3981 0.762021 13.9819 2.1193 12.8247C3.72325 11.4721 5.87502 10.4419 8.33003 9.8512L8.35252 10.615C7.129 10.5388 5.96017 10.2445 4.97415 9.76418C4.04105 9.30138 3.29948 8.69349 2.81563 7.99563C2.31285 7.27015 2.05818 6.4815 2.06919 5.68487C2.03717 4.63303 2.49244 3.60001 3.37494 2.72079V2.72079Z" fill="#BEBEBF"/>
</svg>
