<svg width="19" height="27" viewBox="0 0 19 27" fill="none" xmlns="http://www.w3.org/2000/svg">
<path d="M9.49219 26.2739C7.24186 26.3555 5.03771 25.6219 3.28516 24.208C2.48724 23.5608 1.83742 22.7495 1.38086 21.8291C0.924298 20.9087 0.671207 19.9009 0.638672 18.874H4.33887C4.39453 19.4615 4.5696 20.0311 4.85352 20.5483C5.13743 21.0656 5.52456 21.5194 5.99023 21.8818C6.99708 22.6698 8.24843 23.0801 9.52637 23.041C10.2345 23.0739 10.9415 22.9587 11.6025 22.7026C12.2636 22.4466 12.864 22.0555 13.3652 21.5542C13.8664 21.0529 14.2568 20.4526 14.5127 19.7915C14.7686 19.1304 14.8836 18.423 14.8506 17.7148C14.8762 17.0045 14.759 16.2962 14.5049 15.6323C14.2508 14.9685 13.8654 14.3628 13.3721 13.8511C12.8763 13.3484 12.2812 12.9543 11.625 12.6938C10.9688 12.4334 10.2651 12.3121 9.55957 12.3379C8.53413 12.3238 7.52196 12.5645 6.6123 13.0381C5.76204 13.4759 5.05219 14.1437 4.56348 14.9658H1.01758L2.33203 0.855957H17.1846V4.12402H5.44531L4.75391 11.7842H4.83984C5.41969 10.9672 6.21195 10.324 7.13086 9.9248C8.16259 9.46982 9.28074 9.24295 10.4082 9.25977C11.5034 9.22314 12.5936 9.41411 13.6113 9.82031C14.6291 10.2265 15.5523 10.8395 16.3213 11.6201C17.8516 13.3052 18.68 15.5113 18.6367 17.7871C18.5934 20.063 17.6812 22.2362 16.0879 23.8618C14.2943 25.5058 11.9232 26.373 9.49219 26.2739V26.2739Z" fill="#F9F9F9"/>
</svg>
