<svg width="22" height="14" viewBox="0 0 22 14" fill="none" xmlns="http://www.w3.org/2000/svg">
<path d="M20.4021 0H1.59793C0.717892 0 0 0.714946 0 1.59146V12.4085C0 13.285 0.717851 14 1.59793 14H20.4021C21.2821 14 22 13.2851 22 12.4085V1.59146C22 0.691965 21.2822 0 20.4021 0ZM10.6063 6.45795L9.07786 7.77269C8.93894 7.88804 8.86948 8.07257 8.91568 8.25712L9.37879 10.2176C9.47135 10.6327 9.00823 10.9788 8.63766 10.7481L6.92394 9.71024C6.76176 9.61805 6.57664 9.61805 6.41447 9.71024L4.70075 10.7481C4.33019 10.9788 3.86707 10.6327 3.95962 10.2176L4.42273 8.25712C4.46909 8.07258 4.39963 7.88805 4.26055 7.77269L2.73209 6.45795C2.40789 6.18123 2.56991 5.62764 3.00994 5.60462L5.02462 5.44309C5.20991 5.42009 5.37193 5.30473 5.44138 5.14321L6.22871 3.29804C6.39089 2.90597 6.96984 2.90597 7.13186 3.29804L7.91919 5.14321C7.98865 5.30474 8.15083 5.41993 8.33594 5.44309L10.3506 5.60462C10.7684 5.62763 10.9305 6.15808 10.6063 6.45795ZM18.5263 11.1169H12.9453C12.598 11.1169 12.32 10.8402 12.32 10.4941C12.32 10.1482 12.5978 9.87136 12.9453 9.87136H18.5263C18.8736 9.87136 19.1516 10.1481 19.1516 10.4941C19.1516 10.8402 18.8736 11.1169 18.5263 11.1169ZM18.5263 7.61128H12.9453C12.598 7.61128 12.32 7.33456 12.32 6.98851C12.32 6.64261 12.5978 6.36574 12.9453 6.36574H18.5263C18.8736 6.36574 19.1516 6.64246 19.1516 6.98851C19.1747 7.33441 18.8736 7.61128 18.5263 7.61128ZM18.5263 4.12852H12.9453C12.598 4.12852 12.32 3.8518 12.32 3.50575C12.32 3.15985 12.5978 2.88297 12.9453 2.88297H18.5263C18.8736 2.88297 19.1516 3.15969 19.1516 3.50575C19.1516 3.8518 18.8736 4.12852 18.5263 4.12852Z" fill="#353535"/>
</svg>
