<svg width="20" height="19" viewBox="0 0 20 19" fill="none" xmlns="http://www.w3.org/2000/svg">
<path d="M0 1.58333C0 0.707552 0.638393 0 1.42857 0H18.5714C19.3616 0 20 0.707552 20 1.58333C20 2.45911 19.3616 3.16667 18.5714 3.16667H1.42857C0.638393 3.16667 0 2.45911 0 1.58333ZM0 9.5C0 8.62422 0.638393 7.91667 1.42857 7.91667H18.5714C19.3616 7.91667 20 8.62422 20 9.5C20 10.3758 19.3616 11.0833 18.5714 11.0833H1.42857C0.638393 11.0833 0 10.3758 0 9.5ZM20 17.4167C20 18.2924 19.3616 19 18.5714 19H1.42857C0.638393 19 0 18.2924 0 17.4167C0 16.5409 0.638393 15.8333 1.42857 15.8333H18.5714C19.3616 15.8333 20 16.5409 20 17.4167Z" fill="#D6DADE"/>
</svg>
