<svg width="23" height="26" viewBox="0 0 23 26" fill="none" xmlns="http://www.w3.org/2000/svg">
<path d="M11.4989 0C10.5902 0 9.85603 0.726172 9.85603 1.625V2.6C6.10831 3.35156 3.28469 6.63203 3.28469 10.5625V11.5172C3.28469 13.9039 2.39653 16.2094 0.794766 17.9969L0.41486 18.4184C-0.0163843 18.8957 -0.119062 19.5813 0.142765 20.1652C0.404592 20.7492 0.994986 21.125 1.64185 21.125H21.3559C22.0027 21.125 22.588 20.7492 22.855 20.1652C23.1219 19.5813 23.0141 18.8957 22.5829 18.4184L22.203 17.9969C20.6012 16.2094 19.713 13.909 19.713 11.5172V10.5625C19.713 6.63203 16.8894 3.35156 13.1417 2.6V1.625C13.1417 0.726172 12.4076 0 11.4989 0ZM13.8245 25.0504C14.4406 24.441 14.7845 23.6133 14.7845 22.75H11.4989H8.21319C8.21319 23.6133 8.55716 24.441 9.17323 25.0504C9.78929 25.6598 10.6261 26 11.4989 26C12.3716 26 13.2084 25.6598 13.8245 25.0504Z" fill="#D6DADE"/>
</svg>
