<svg width="21" height="20" viewBox="0 0 21 20" fill="none" xmlns="http://www.w3.org/2000/svg">
<path d="M16.6849 8.12381C16.6849 9.91652 16.0952 11.5725 15.1019 12.9161L20.1121 17.8646C20.6068 18.3528 20.6068 19.1456 20.1121 19.6338C19.6174 20.1221 18.814 20.1221 18.3194 19.6338L13.3092 14.6853C11.9478 15.6696 10.2698 16.2476 8.45329 16.2476C3.90612 16.2476 0.22168 12.6114 0.22168 8.12381C0.22168 3.63619 3.90612 0 8.45329 0C13.0005 0 16.6849 3.63619 16.6849 8.12381ZM8.45329 13.748C11.5995 13.748 14.1521 11.2288 14.1521 8.12381C14.1521 5.0188 11.5995 2.49963 8.45329 2.49963C5.30707 2.49963 2.75448 5.0188 2.75448 8.12381C2.75448 11.2288 5.30707 13.748 8.45329 13.748Z" fill="#ADB5BD"/>
</svg>
