<svg width="17" height="18" viewBox="0 0 17 18" fill="none" xmlns="http://www.w3.org/2000/svg">
<path d="M16.9529 5.8401C17.0656 6.14507 16.9705 6.4851 16.7274 6.70244L15.2021 8.08359C15.2408 8.37454 15.2619 8.67251 15.2619 8.97398C15.2619 9.27544 15.2408 9.57341 15.2021 9.86436L16.7274 11.2455C16.9705 11.4629 17.0656 11.8029 16.9529 12.1079C16.7979 12.525 16.6112 12.9246 16.3963 13.3102L16.2307 13.5942C15.9982 13.9798 15.7375 14.3443 15.4522 14.6879C15.2443 14.9403 14.8991 15.0244 14.5891 14.9262L12.6269 14.3058C12.1549 14.6668 11.6335 14.9683 11.0769 15.1962L10.6366 17.1978C10.5661 17.5168 10.3195 17.7692 9.99541 17.8218C9.50927 17.9024 9.00904 17.9444 8.49824 17.9444C7.98744 17.9444 7.48721 17.9024 7.00106 17.8218C6.67697 17.7692 6.43038 17.5168 6.35992 17.1978L5.91957 15.1962C5.36298 14.9683 4.84161 14.6668 4.36956 14.3058L2.4109 14.9297C2.1009 15.0279 1.75567 14.9403 1.54782 14.6914C1.26248 14.3478 1.0018 13.9833 0.769293 13.5977L0.603723 13.3137C0.388834 12.9281 0.202128 12.5285 0.047126 12.1114C-0.0656024 11.8064 0.0295122 11.4664 0.272583 11.249L1.79794 9.86787C1.75919 9.57341 1.73805 9.27544 1.73805 8.97398C1.73805 8.67251 1.75919 8.37454 1.79794 8.08359L0.272583 6.70244C0.0295122 6.4851 -0.0656024 6.14507 0.047126 5.8401C0.202128 5.42295 0.388834 5.02332 0.603723 4.63772L0.769293 4.35378C1.0018 3.96818 1.26248 3.60361 1.54782 3.26008C1.75567 3.00768 2.1009 2.92355 2.4109 3.02171L4.37308 3.64217C4.84513 3.28111 5.3665 2.97964 5.9231 2.75179L6.36344 0.750168C6.4339 0.431171 6.68049 0.178778 7.00459 0.126197C7.49073 0.0420655 7.99096 0 8.50176 0C9.01256 0 9.5128 0.0420655 9.99894 0.122691C10.323 0.175273 10.5696 0.427666 10.6401 0.746663L11.0804 2.74828C11.637 2.97613 12.1584 3.2776 12.6304 3.63867L14.5926 3.0182C14.9026 2.92005 15.2479 3.00768 15.4557 3.25657C15.741 3.60011 16.0017 3.96467 16.2342 4.35027L16.3998 4.63422C16.6147 5.01982 16.8014 5.41944 16.9564 5.83659L16.9529 5.8401ZM8.50176 11.7783C10.0588 11.7783 11.32 10.5234 11.32 8.97398C11.32 7.42456 10.0588 6.16961 8.50176 6.16961C6.9447 6.16961 5.68355 7.42456 5.68355 8.97398C5.68355 10.5234 6.9447 11.7783 8.50176 11.7783Z" fill="#353535"/>
</svg>
